<?xml version="1.0" encoding="UTF-8"?>
<!DOCTYPE svg PUBLIC "-//W3C//DTD SVG 1.1//EN" "http://www.w3.org/Graphics/SVG/1.1/DTD/svg11.dtd">
<svg xmlns="http://www.w3.org/2000/svg" version="1.1" width="512px" height="512px" style="shape-rendering:geometricPrecision; text-rendering:geometricPrecision; image-rendering:optimizeQuality; fill-rule:evenodd; clip-rule:evenodd" xmlns:xlink="http://www.w3.org/1999/xlink">
<g><path style="opacity:0.956" fill="#000000" d="M 232.5,-0.5 C 247.5,-0.5 262.5,-0.5 277.5,-0.5C 377.764,12.0403 449.264,64.0403 492,155.5C 502.135,180.377 508.635,206.043 511.5,232.5C 511.5,247.833 511.5,263.167 511.5,278.5C 500.612,368.144 456.279,435.644 378.5,481C 347.029,497.695 313.696,507.861 278.5,511.5C 263.167,511.5 247.833,511.5 232.5,511.5C 142.856,500.612 75.3562,456.279 30,378.5C 13.3053,347.029 3.1386,313.696 -0.5,278.5C -0.5,263.167 -0.5,247.833 -0.5,232.5C 10.3875,142.857 54.7208,75.3573 132.5,30C 163.971,13.3053 197.304,3.1386 232.5,-0.5 Z M 242.5,25.5 C 332.171,24.0787 401.671,60.412 451,134.5C 492.356,205.746 496.356,279.08 463,354.5C 421.914,432.988 357.081,476.488 268.5,485C 184.801,487.23 117.967,455.063 68,388.5C 23.5089,322.243 14.1756,251.243 40,175.5C 69.3857,102.447 121.886,54.9475 197.5,33C 212.463,29.395 227.463,26.895 242.5,25.5 Z"/></g>
<g><path style="opacity:0.949" fill="#000000" d="M 213.5,152.5 C 216.941,152.301 220.274,152.801 223.5,154C 259.63,185.128 295.463,216.628 331,248.5C 333,253.167 333,257.833 331,262.5C 296.167,293.333 261.333,324.167 226.5,355C 214.551,361.572 206.885,358.238 203.5,345C 203.934,342.366 204.767,339.866 206,337.5C 236.71,309.952 267.544,282.619 298.5,255.5C 267.544,228.381 236.71,201.048 206,173.5C 201.861,164.08 204.361,157.08 213.5,152.5 Z"/></g>
</svg>
