<?xml version="1.0" standalone="no"?>
<!DOCTYPE svg PUBLIC "-//W3C//DTD SVG 20010904//EN"
 "http://www.w3.org/TR/2001/REC-SVG-20010904/DTD/svg10.dtd">
<svg version="1.0" xmlns="http://www.w3.org/2000/svg"
 width="512.000000pt" height="512.000000pt" viewBox="0 0 512.000000 512.000000"
 preserveAspectRatio="xMidYMid meet">

<g transform="translate(0.000000,512.000000) scale(0.100000,-0.100000)"
fill="#000000" stroke="none">
<path d="M3568 4720 c-23 -13 -46 -36 -58 -60 -20 -39 -20 -55 -20 -2010 l0
-1970 -110 0 -110 0 0 1243 c0 1190 -1 1244 -19 1277 -10 19 -33 45 -51 58
l-33 22 -607 0 -607 0 -33 -22 c-18 -13 -41 -39 -51 -58 -18 -33 -19 -87 -19
-1277 l0 -1243 -110 0 -110 0 0 512 c0 496 -1 513 -21 554 -15 31 -32 48 -63
64 -43 20 -53 20 -639 18 -584 -3 -596 -3 -623 -24 -15 -11 -37 -33 -48 -48
-21 -27 -21 -40 -24 -551 l-3 -523 -54 -7 c-100 -12 -160 -78 -152 -164 6 -51
31 -88 78 -116 34 -20 52 -20 2479 -20 2427 0 2445 0 2479 20 47 28 72 65 78
116 8 86 -52 152 -152 164 l-55 7 -2 1978 -3 1979 -21 27 c-11 15 -33 37 -48
48 -27 21 -39 21 -629 23 -584 2 -603 2 -639 -17z m1042 -2160 l0 -1880 -410
0 -410 0 0 1880 0 1880 410 0 410 0 0 -1880z m-1640 -730 l0 -1150 -410 0
-410 0 0 1150 0 1150 410 0 410 0 0 -1150z m-1640 -725 l0 -425 -410 0 -410 0
0 425 0 425 410 0 410 0 0 -425z"/>
</g>
</svg>
