<?xml version="1.0" standalone="no"?>
<!DOCTYPE svg PUBLIC "-//W3C//DTD SVG 20010904//EN"
 "http://www.w3.org/TR/2001/REC-SVG-20010904/DTD/svg10.dtd">
<svg version="1.0" xmlns="http://www.w3.org/2000/svg"
 width="512.000000pt" height="512.000000pt" viewBox="0 0 512.000000 512.000000"
 preserveAspectRatio="xMidYMid meet">

<g transform="translate(0.000000,512.000000) scale(0.100000,-0.100000)"
fill="#000000" stroke="none">
<path d="M841 4624 c-169 -45 -301 -180 -346 -351 -22 -85 -22 -1101 0 -1186
45 -173 178 -307 350 -352 88 -22 1102 -22 1190 0 172 45 305 179 350 352 22
85 22 1101 0 1186 -45 173 -178 307 -350 352 -85 22 -1112 21 -1194 -1z m1165
-330 c15 -11 37 -33 48 -48 21 -27 21 -38 21 -566 0 -528 0 -539 -21 -566 -11
-15 -33 -37 -48 -48 -27 -21 -38 -21 -566 -21 -528 0 -539 0 -566 21 -15 11
-37 33 -48 48 -20 27 -21 40 -24 539 -2 282 0 526 3 544 7 40 49 91 90 109 24
11 134 13 557 11 514 -2 527 -2 554 -23z"/>
<path d="M3081 4624 c-169 -45 -301 -180 -346 -351 -22 -85 -22 -1101 0 -1186
45 -173 178 -307 350 -352 88 -22 1102 -22 1190 0 172 45 305 179 350 352 22
85 22 1101 0 1186 -45 173 -178 307 -350 352 -85 22 -1112 21 -1194 -1z m1165
-330 c15 -11 37 -33 48 -48 21 -27 21 -38 21 -566 0 -528 0 -539 -21 -566 -11
-15 -33 -37 -48 -48 -27 -21 -38 -21 -566 -21 -528 0 -539 0 -566 21 -15 11
-37 33 -48 48 -20 27 -21 40 -24 539 -2 282 0 526 3 544 7 40 49 91 90 109 24
11 134 13 557 11 514 -2 527 -2 554 -23z"/>
<path d="M841 2384 c-169 -45 -301 -180 -346 -351 -22 -85 -22 -1101 0 -1186
45 -173 178 -307 350 -352 88 -22 1102 -22 1190 0 172 45 305 179 350 352 22
85 22 1101 0 1186 -45 173 -178 307 -350 352 -85 22 -1112 21 -1194 -1z m1165
-330 c15 -11 37 -33 48 -48 21 -27 21 -38 21 -566 0 -528 0 -539 -21 -566 -11
-15 -33 -37 -48 -48 -27 -21 -38 -21 -566 -21 -528 0 -539 0 -566 21 -15 11
-37 33 -48 48 -20 27 -21 40 -24 539 -2 282 0 526 3 544 7 40 49 91 90 109 24
11 134 13 557 11 514 -2 527 -2 554 -23z"/>
<path d="M3081 2384 c-169 -45 -301 -180 -346 -351 -22 -85 -22 -1101 0 -1186
45 -173 178 -307 350 -352 88 -22 1102 -22 1190 0 172 45 305 179 350 352 22
85 22 1101 0 1186 -45 173 -178 307 -350 352 -85 22 -1112 21 -1194 -1z m1165
-330 c15 -11 37 -33 48 -48 21 -27 21 -38 21 -566 0 -528 0 -539 -21 -566 -11
-15 -33 -37 -48 -48 -27 -21 -38 -21 -566 -21 -528 0 -539 0 -566 21 -15 11
-37 33 -48 48 -20 27 -21 40 -24 539 -2 282 0 526 3 544 7 40 49 91 90 109 24
11 134 13 557 11 514 -2 527 -2 554 -23z"/>
</g>
</svg>
