<?xml version="1.0" standalone="no"?>
<!DOCTYPE svg PUBLIC "-//W3C//DTD SVG 20010904//EN"
 "http://www.w3.org/TR/2001/REC-SVG-20010904/DTD/svg10.dtd">
<svg version="1.0" xmlns="http://www.w3.org/2000/svg"
 width="512.000000pt" height="512.000000pt" viewBox="0 0 512.000000 512.000000"
 preserveAspectRatio="xMidYMid meet">

<g transform="translate(0.000000,512.000000) scale(0.100000,-0.100000)"
fill="#000000" stroke="none">
<path d="M1312 4833 c-18 -9 -43 -30 -55 -47 -20 -28 -22 -46 -27 -196 l-5
-165 -150 -6 c-158 -6 -230 -20 -329 -64 -179 -79 -333 -233 -412 -411 -14
-31 -34 -96 -46 -143 -20 -85 -21 -105 -22 -1466 -1 -1288 0 -1385 17 -1449
64 -252 220 -443 448 -550 161 -77 13 -71 1829 -71 1816 0 1668 -6 1829 71
238 112 405 326 453 580 10 55 13 345 12 1434 -1 1345 -2 1366 -22 1451 -49
203 -167 374 -333 485 -143 95 -246 125 -454 133 l-150 6 -5 165 c-5 150 -7
168 -27 196 -46 64 -149 84 -214 41 -19 -12 -44 -42 -56 -67 -21 -40 -23 -59
-23 -192 l0 -148 -424 0 -425 0 -3 164 c-3 149 -5 167 -24 193 -73 98 -195 98
-268 0 -19 -26 -21 -44 -24 -193 l-3 -164 -424 0 -423 0 -4 158 c-3 137 -6
162 -24 192 -43 74 -134 102 -212 63z m-82 -881 c0 -124 3 -153 19 -182 63
-118 226 -109 282 14 15 33 19 66 19 179 l0 137 425 0 425 0 0 -140 c0 -154 8
-189 55 -233 57 -52 153 -52 210 0 47 44 55 79 55 233 l0 140 425 0 425 0 0
-137 c0 -113 4 -146 19 -179 56 -123 219 -132 282 -14 16 29 19 58 19 182 l0
148 119 0 c136 0 213 -18 296 -71 70 -43 102 -75 147 -143 68 -105 78 -156 78
-407 l0 -219 -1970 0 -1970 0 0 219 c0 190 3 227 20 283 36 117 112 213 215
274 83 48 148 63 283 63 l122 1 0 -148z m3300 -1980 c0 -1064 2 -1024 -61
-1143 -38 -71 -126 -157 -198 -194 -113 -57 -55 -55 -1711 -55 -1674 0 -1602
-2 -1720 61 -71 38 -158 126 -194 197 -58 114 -56 82 -56 1134 l0 968 1970 0
1970 0 0 -968z"/>
<path d="M1420 2501 c-198 -60 -256 -315 -103 -452 58 -53 119 -73 198 -67
227 19 326 288 165 448 -67 68 -174 97 -260 71z"/>
<path d="M2441 2478 c-247 -128 -159 -498 119 -498 234 0 353 286 188 452 -49
48 -103 71 -178 76 -58 3 -72 0 -129 -30z"/>
<path d="M3531 2493 c-94 -34 -171 -146 -171 -248 0 -228 274 -349 443 -196
137 123 107 348 -58 433 -53 28 -155 33 -214 11z"/>
<path d="M1435 1651 c-152 -38 -238 -188 -195 -343 29 -102 139 -181 252 -180
77 0 130 20 181 70 62 60 82 105 82 192 0 65 -4 82 -29 128 -58 104 -181 160
-291 133z"/>
<path d="M2479 1644 c-59 -18 -131 -82 -160 -142 -17 -34 -23 -64 -23 -112 1
-148 115 -262 264 -262 149 0 263 114 264 262 0 82 -28 144 -91 200 -73 64
-161 83 -254 54z"/>
<path d="M3545 1643 c-70 -25 -117 -64 -151 -125 -25 -46 -29 -64 -29 -128 1
-89 21 -136 85 -194 56 -51 102 -68 178 -68 227 -1 346 264 197 440 -62 74
-188 108 -280 75z"/>
</g>
</svg>
