<svg width="14" height="16" viewBox="0 0 14 16" fill="none" xmlns="http://www.w3.org/2000/svg">
<path id="Vector" d="M12.7925 12.4488C12.5619 12.9815 12.2889 13.4719 11.9727 13.9227C11.5416 14.5373 11.1887 14.9627 10.9167 15.1989C10.4951 15.5867 10.0433 15.7853 9.55953 15.7966C9.21224 15.7966 8.79341 15.6978 8.30588 15.4973C7.81675 15.2978 7.36725 15.1989 6.95624 15.1989C6.52518 15.1989 6.06287 15.2978 5.56838 15.4973C5.07313 15.6978 4.67417 15.8022 4.36913 15.8126C3.90522 15.8324 3.44282 15.6281 2.98127 15.1989C2.68668 14.942 2.31821 14.5015 1.8768 13.8775C1.4032 13.2112 1.01384 12.4385 0.7088 11.5575C0.382118 10.606 0.218353 9.68459 0.218353 8.79254C0.218353 7.77071 0.439153 6.88939 0.881412 6.15085C1.22899 5.55762 1.69139 5.08967 2.27012 4.74614C2.84885 4.40261 3.47417 4.22755 4.14758 4.21635C4.51605 4.21635 4.99925 4.33033 5.59972 4.55433C6.19849 4.77908 6.58296 4.89306 6.75153 4.89306C6.87755 4.89306 7.30466 4.75979 8.02871 4.49409C8.71341 4.24769 9.29129 4.14567 9.76471 4.18586C11.0475 4.28939 12.0113 4.79508 12.6522 5.70614C11.5049 6.40129 10.9374 7.37494 10.9487 8.62398C10.9591 9.59687 11.312 10.4065 12.0056 11.0493C12.32 11.3476 12.6711 11.5782 13.0616 11.742C12.9769 11.9876 12.8875 12.2229 12.7925 12.4488ZM9.85035 0.871411C9.85035 1.63396 9.57176 2.34595 9.01647 3.00496C8.34635 3.7884 7.53581 4.24111 6.65685 4.16967C6.64565 4.07819 6.63915 3.98191 6.63915 3.88073C6.63915 3.14868 6.95784 2.36525 7.52376 1.72468C7.80631 1.40035 8.16565 1.13068 8.60141 0.915552C9.03624 0.703637 9.44753 0.586442 9.83435 0.566376C9.84565 0.668315 9.85035 0.770272 9.85035 0.871411Z" fill="#37352F"/>
</svg>
