<svg xmlns="http://www.w3.org/2000/svg" viewBox="0 0 500 500"><g id="freepik--background-complete--inject-329"><g><g><g><path d="M443.92039,320.1975h-180.7461c-3.2324,0-5.86229-2.6298-5.86229-5.8623V51.0618c0-3.2324,2.62989-5.8618,5.86229-5.8618h180.7461c3.2324,0,5.8623,2.6294,5.8623,5.8618V314.3352c0,3.2325-2.6299,5.8623-5.8623,5.8623ZM263.17429,45.45c-3.0947,0-5.61229,2.5176-5.61229,5.6118V314.3352c0,3.0948,2.51759,5.6123,5.61229,5.6123h180.7461c3.0947,0,5.6123-2.5175,5.6123-5.6123V51.0618c0-3.0942-2.5176-5.6118-5.6123-5.6118h-180.7461Z" style="fill:#e0e0e0;"></path><path d="M235.49269,320.1975H54.7461c-3.2324,0-5.8618-2.6298-5.8618-5.8623V51.0618c0-3.2324,2.6294-5.8618,5.8618-5.8618H235.49269c3.2324,0,5.86231,2.6294,5.86231,5.8618V314.3352c0,3.2325-2.62991,5.8623-5.86231,5.8623ZM54.7461,45.45c-3.0942,0-5.6118,2.5176-5.6118,5.6118V314.3352c0,3.0948,2.5176,5.6123,5.6118,5.6123H235.49269c3.0947,0,5.61231-2.5175,5.61231-5.6123V51.0618c0-3.0942-2.51761-5.6118-5.61231-5.6118H54.7461Z" style="fill:#e0e0e0;"></path></g><rect x="0" y="381.2669" width="500" height=".25" style="fill:#e0e0e0;"></rect></g><rect x="51.6724" y="395.5314" width="16.06" height=".25" style="fill:#e0e0e0;"></rect><rect x="170.3524" y="392.8214" width="53.53" height=".25" style="fill:#e0e0e0;"></rect><rect x="68.7324" y="404.8214" width="36.25" height=".25" style="fill:#e0e0e0;"></rect><rect x="378.35239" y="392.6914" width="43.19" height=".25" style="fill:#e0e0e0;"></rect><rect x="430.45239" y="392.6914" width="6.33" height=".25" style="fill:#e0e0e0;"></rect><rect x="316.21239" y="398.9214" width="53.89" height=".25" style="fill:#e0e0e0;"></rect></g><g><rect x="285.99669" y="67.6907" width="147.2095" height="162.8955" style="fill:#e6e6e6;"></rect><rect x="292.47419" y="74.1428" width="134.6399" height="150.3262" style="fill:#f5f5f5;"></rect><polygon points="330.526 74.1428 292.47419 216.6518 292.47419 139.5019 309.88589 74.1428 330.526 74.1428" style="fill:#fff;"></polygon><polygon points="347.53279 74.1428 307.402 224.469 299.83339 224.469 339.96419 74.1428 347.53279 74.1428" style="fill:#fff;"></polygon><polygon points="427.11409 115.1359 427.11409 192.2991 418.59119 224.469 397.95069 224.469 427.11409 115.1359" style="fill:#fff;"></polygon><rect x="356.98689" y="67.6907" width="5.22911" height="162.8955" style="fill:#e6e6e6;"></rect><rect x="288.55249" y="100.7436" width="141.8296" height="5.2291" style="fill:#e6e6e6;"></rect></g><g><g><path d="M161.782,366.1092c-.0162-.5052-1.7165-50.6878-9.8791-58.6249-7.9389-7.7177-17.0509-.287-17.4339,.0323l-.8185-.9807c.1029-.0872,10.3864-8.4812,19.1433,.0325,8.5292,8.2942,10.1978,57.4137,10.2645,59.5008l-1.2763,.04Z" style="fill:#e0e0e0;"></path><path d="M162.4826,375.9715c-.0587-.6-5.5786-60.2444,16.2034-85.2425l.9631,.8383c-21.4208,24.5841-15.9525,83.6857-15.8952,84.2794l-1.2713,.1248Z" style="fill:#e0e0e0;"></path><path d="M161.6773,369.6623l-1.275-.0848c.045-.6761,4.2631-67.8072-11.7145-82.5028l.8647-.9408c16.4253,15.1085,12.3083,80.7414,12.1248,83.5284Z" style="fill:#e0e0e0;"></path><path d="M163.7571,369.6249l-1.2776-.01c.0156-1.8489,.5271-45.3442,12.8822-52.4242,2.7465-1.5757,5.4358-1.8377,7.9941-.7799,7.4706,3.0903,11.1728,16.386,11.3269,16.95l-1.2326,.337c-.0361-.1325-3.6916-13.2572-10.5841-16.1068-2.1725-.897-4.4831-.6599-6.8692,.7074-11.7239,6.7183-12.2359,50.8812-12.2397,51.3265Z" style="fill:#e0e0e0;"></path><path d="M158.9457,369.6562l-1.2749-.0724c.0192-.3431,1.8637-34.3716-7.3198-46.3612-2.2251-2.9042-4.6405-4.2891-7.1926-4.1107-6.0171,.4206-11.0631,9.226-11.1131,9.3146l-1.1126-.6287c.2189-.3868,5.432-9.4905,12.1347-9.9598,2.9987-.2132,5.7939,1.34,8.2979,4.6088,9.4717,12.3649,7.6621,45.7932,7.5804,47.2094Z" style="fill:#e0e0e0;"></path><path d="M160.9593,374.2847c-.25-3.3012-6.0034-80.9995,4.1197-94.6907l1.0267,.7585c-9.8431,13.3133-3.9331,93.0314-3.8727,93.8349l-1.2737,.0973Z" style="fill:#e0e0e0;"></path></g><path d="M186.1087,324.2853s-6.0729,2.2388-4.2672,7.5243c1.8054,5.2856,21.0086,13.9844,21.0086,13.9844,0,0,8.0426-7.3715,.6565-19.3603-7.3858-11.9888-17.23359-5.9309-17.3979-2.1484Z" style="fill:#ebebeb;"></path><path d="M159.7083,314.2239s6.4668-.2708,6.8344,5.3026c.3674,5.5732-14.0095,20.9921-14.0095,20.9921,0,0-10.26-3.7092-8.0564-17.617,2.2037-13.9077,13.6244-12.106,15.2315-8.6777Z" style="fill:#ebebeb;"></path><path d="M154.2333,287.5454s4.3115-.463,3.9644-3.089c-.3471-2.6263-16.7604-9.3853-26.4441,1.5443,0,0,6.2007,10.6511,15.164,10.7903,8.9634,.1393,7.3157-9.2456,7.3157-9.2456Z" style="fill:#ebebeb;"></path><path d="M162.2675,281.1678s-3.9039,1.8877-4.9983-.5248c-1.0943-2.4122,9.2605-16.8293,23.2598-12.6753,0,0,.3708,12.319-7.1627,17.1777-7.5333,4.8591-11.0988-3.9776-11.0988-3.9776Z" style="fill:#ebebeb;"></path><path d="M141.8542,322.1608s2.9756-2.4025-.2357-3.5752c-3.2113-1.1728-18.9678-.8395-19.132,14.7687,0,0,18.3514,3.0496,20.623-2.8956,2.2716-5.9454-1.2553-8.2979-1.2553-8.2979Z" style="fill:#ebebeb;"></path><path d="M179.2762,287.154s-2.9755-2.4026,.2357-3.5753c3.2111-1.1727,18.9676-.8396,19.1319,14.7685,0,0-18.3515,3.05-20.6229-2.8956-2.2715-5.9452,1.2553-8.2976,1.2553-8.2976Z" style="fill:#ebebeb;"></path><path d="M169.5746,299.7271s-.2619-2.9205,2.096-1.7757c2.3578,1.1447,10.572,10.0064,2.0574,18.4157,0,0-11.4617-8.4889-9.3958-12.9095,2.066-4.4205,5.2424-3.7305,5.2424-3.7305Z" style="fill:#ebebeb;"></path><path d="M139.194,303.8889s1.7789-2.331-.8261-2.6198c-2.6051-.289-14.2796,2.8272-11.5608,14.4815,0,0,14.2227-1.0689,14.8322-5.9102,.6096-4.8414-2.4453-5.9515-2.4453-5.9515Z" style="fill:#ebebeb;"></path><polygon points="175.7132 392.1377 147.0254 392.1377 139.3946 356.9414 182.6192 356.9414 175.7132 392.1377" style="fill:#f0f0f0;"></polygon><rect x="136.7922" y="356.432" width="48.317" height="10.1212" style="fill:#e6e6e6;"></rect></g><g><rect x="262.41029" y="310.8728" width="183.3565" height="60.2382" style="fill:#f0f0f0;"></rect><rect x="448.23389" y="303.5259" width="11.528" height="87.741" style="fill:#e0e0e0;"></rect><path d="M259.441,303.5259v87.741h6.14609v-13.977h176.6427v13.977h6.146v-87.741h-188.93479Zm6.14609,10.7529h85.2483v52.2254h-85.2483v-52.2254Zm91.3834,0h85.2593v52.2254h-85.2483l-.011-52.2254Z" style="fill:#e6e6e6;"></path><path d="M369.42649,340.9919c0,2.0439-1.6569,3.7008-3.7008,3.7008s-3.70069-1.6569-3.70069-3.7008,1.65689-3.7008,3.70069-3.7008,3.7008,1.6569,3.7008,3.7008Z" style="fill:#e0e0e0;"></path><path d="M367.46149,340.9919c0,2.0439-1.6569,3.7008-3.7008,3.7008s-3.70069-1.6569-3.70069-3.7008,1.65679-3.7008,3.70069-3.7008,3.7008,1.6569,3.7008,3.7008Z" style="fill:#fafafa;"></path><path d="M348.14989,340.9919c0,2.0439-1.65689,3.7008-3.7008,3.7008s-3.7007-1.6569-3.7007-3.7008,1.6568-3.7008,3.7007-3.7008,3.7008,1.6569,3.7008,3.7008Z" style="fill:#e0e0e0;"></path><path d="M346.19579,340.9919c0,2.0439-1.6569,3.7008-3.70079,3.7008s-3.70071-1.6569-3.70071-3.7008,1.6569-3.7008,3.70071-3.7008,3.70079,1.6569,3.70079,3.7008Z" style="fill:#fafafa;"></path></g><g><rect x="102.7171" y="83.7215" width="82.31" height="106.94" style="fill:#f0f0f0;"></rect><rect x="109.0471" y="91.9515" width="69.65" height="90.48" style="fill:#e0e0e0;"></rect><rect x="113.4071" y="97.6115" width="60.93" height="79.16" style="fill:#f5f5f5;"></rect><path d="M134.8871,142.3515c-7.6,0-21.51,21.52-21.51,21.52v12.9h55.94s-22.23-34.42-34.43-34.42Z" style="fill:#fff;"></path><path d="M165.9571,126.2215c0,4.6226-3.7474,8.37-8.37,8.37s-8.37-3.7474-8.37-8.37,3.7474-8.37,8.37-8.37h0c4.6171-.0055,8.3645,3.7329,8.37,8.35v.02Z" style="fill:#fff;"></path></g></g><g id="freepik--Shadow--inject-329"><path d="M458.875,459.0115c0,3.3867-93.51651,6.1322-208.875,6.1322s-208.875-2.7455-208.875-6.1322,93.5165-6.1323,208.875-6.1323,208.875,2.7455,208.875,6.1323Z" style="fill:#f5f5f5;"></path></g><g id="freepik--Plant--inject-329"><g><g><path d="M409.75749,291.1476c-17.3689,20.317-22.4416,50.3905-12.6983,75.2807,10.8257-9.6621,18.449-24.3898,18.9314-37.2712,.4826-12.8815-2.8891-25.5603-6.2331-38.0095Z" style="fill:#407BFF;"></path><path d="M406.72749,368.7764c-5.8934,9.0301-8.7144,20.0268-7.8959,30.779,9.3895-3.2692,17.6669-13.8752,22.6296-22.4904,4.9625-8.6151,7.7373-18.2916,10.2619-27.9079-10.1717,3.5794-19.1022,10.5891-24.9956,19.6193Z" style="fill:#407BFF;"></path><path d="M404.54419,326.62311c-6.98036,25.08712-10.53512,51.10788-10.51164,77.14946,.00667,7.39558,.30689,14.78821,.88445,22.16103,.03745,.47803,.78776,.48207,.75,0-2.03471-25.974-.52584-52.20457,4.52343-77.76633,1.41777-7.1774,3.11584-14.29661,5.07696-21.34478,.12958-.46572-.5938-.66447-.72321-.19938h0Z" style="fill:#263238;"></path><path d="M395.14749,408.05489c7.12862-16.96822,16.49936-32.86313,27.3307-47.72152,.28467-.39051-.36578-.76515-.6476-.37854-10.87316,14.91577-20.25074,30.86832-27.4063,47.90068-.18668,.44435,.53877,.6384,.72321,.19938h0Z" style="fill:#263238;"></path><path d="M385.02039,382.8471c4.9142,7.5298,7.2665,16.6992,6.5839,25.6646-7.82929-2.7258-14.73129-11.5695-18.8692-18.7531-4.13809-7.1837-6.4517-15.2522-8.5568-23.2707,8.4815,2.9847,15.928,8.8295,20.8421,16.3592Z" style="fill:#407BFF;"></path><path d="M394.93529,414.44851c-5.84882-13.91319-13.57566-26.80827-22.4544-38.98848-.28151-.38619-.93255-.01237-.6476,.37854,8.8366,12.12239,16.55715,24.96078,22.3788,38.80932,.18423,.43825,.91031,.24569,.72321-.19938h0Z" style="fill:#263238;"></path><path d="M395.20517,419.08647c11.04839-11.36711,22.32995-22.50464,33.37839-33.8717,.3366-.34631-.19318-.87721-.53033-.53033-11.04844,11.36706-22.33,22.50459-33.37839,33.8717-.3366,.34631,.19318,.87721,.53033,.53033h0Z" style="fill:#263238;"></path><path d="M428.98679,379.9796c-9.58579,9.2444-18.3193,19.3722-26.0537,30.2132l1.75391,.0005c7.29589-.3422,14.37849-3.9414,18.956-9.633,4.57749-5.6915,6.57419-13.3811,5.34379-20.5807Z" style="fill:#407BFF;"></path><g><path d="M383.59569,357.94197c4.11583,6.73113,7.99369,13.60412,11.6268,20.6076,.22234,.42859,.86978,.04975,.6476-.37854-3.63311-7.00348-7.51097-13.87647-11.6268-20.6076-.2514-.41115-.90032-.03477-.6476,.37854h0Z" style="fill:#263238;"></path><path d="M373.68529,323.9486c-1.5696,7.0603-3.12629,16.2416-3.1424,23.5936-.0161,7.3521,2.2272,14.5255,6.4048,19.4519,4.1777,4.9265,12.6111,7.0844,16.011,4.2655l-19.2734-47.311Z" style="fill:#407BFF;"></path></g></g><rect x="373.47019" y="422.3561" width="41.8744" height="7.7605" style="fill:#263238;"></rect><polygon points="408.56279 457.7635 382.56069 457.7635 377.83549 428.3382 412.29569 428.3382 408.56279 457.7635" style="fill:#263238;"></polygon><polygon points="378.14419 430.2607 412.05179 430.2607 411.62919 433.5919 378.67909 433.5919 378.14419 430.2607" style="opacity:.2;"></polygon></g></g><g id="freepik--Shelves--inject-329"><g id="freepik--freepik--Shelf--inject-343--inject-329"><rect x="133.2798" y="145.3032" width="7.7463" height="311.9603" style="fill:#407BFF;"></rect><polygon points="177.6052 457.2636 169.8436 457.2636 139.5102 145.3032 147.2716 145.3032 177.6052 457.2636" style="fill:#407BFF;"></polygon><rect x="90.4552" y="361.0332" width="22.3597" height="22.3598" style="fill:#407BFF;"></rect><rect x="90.4552" y="361.0332" width="7.0035" height="22.3598" style="isolation:isolate; opacity:.2;"></rect><polygon points="127.11 304.5048 134.9624 278.4158 139.0857 279.4618 130.7331 305.8539 127.11 304.5048" style="fill:#263238;"></polygon><polygon points="109.7224 289.8003 98.4592 292.5138 95.1696 303.6104 103.1433 312.0086 114.4066 309.3102 117.6961 298.2137 109.7224 289.8003" style="fill:#263238;"></polygon><path d="M122.926,304.8079h0c-1.4951-.0083-2.7051-1.2183-2.7135-2.7135v-5.0783c.0085-1.4927,1.2208-2.6984,2.7135-2.6983h0c1.4903,0,2.6984,1.208,2.6984,2.6983v5.0783c0,1.4927-1.2057,2.7052-2.6984,2.7135Z" style="fill:#263238;"></path><rect x="88.1662" y="300.912" width="46.7962" height="21.1925" style="fill:#263238;"></rect><rect x="88.1662" y="300.912" width="46.7962" height="21.1925" style="fill:#fff; isolation:isolate; opacity:.5;"></rect><rect x="104.341" y="300.912" width="30.6214" height="21.1925" style="fill:#fff; isolation:isolate; opacity:.5;"></rect><polygon points="123.0322 121.5489 116.438 141.1345 128.6259 141.1345 123.0322 121.5489" style="fill:#263238;"></polygon><polygon points="146.0286 141.1345 123.0322 141.1345 116.438 109.1487 139.4192 109.1487 146.0286 141.1345" style="fill:#407BFF;"></polygon><polygon points="125.4424 138.0724 120.1065 112.2108 137.0241 112.2108 142.3601 138.0724 125.4424 138.0724" style="fill:#fff; isolation:isolate; opacity:.6;"></polygon><polygon points="120.5158 240.0784 127.11 259.6487 114.922 259.6487 120.5158 240.0784" style="fill:#263238;"></polygon><polygon points="97.5345 259.6487 120.5158 259.6487 127.11 227.6781 104.1287 227.6781 97.5345 259.6487" style="fill:#407BFF;"></polygon><polygon points="118.1206 256.5866 123.4415 230.7403 106.5238 230.7403 101.1879 256.5866 118.1206 256.5866" style="fill:#fff; isolation:isolate; opacity:.6;"></polygon><rect x="67.3677" y="196.1774" width="105.6745" height="6.7913" style="fill:#263238;"></rect><rect x="101.0362" y="196.1774" width="72.0211" height="6.7913" style="fill:#fff; isolation:isolate; opacity:.3;"></rect><rect x="67.3677" y="258.5725" width="105.6745" height="6.7913" style="fill:#263238;"></rect><rect x="101.0362" y="258.5725" width="72.0211" height="6.7913" style="fill:#fff; isolation:isolate; opacity:.3;"></rect><rect x="67.3677" y="320.9827" width="105.6745" height="6.7913" style="fill:#263238;"></rect><rect x="101.0362" y="320.9827" width="72.0211" height="6.7913" style="fill:#fff; isolation:isolate; opacity:.3;"></rect><rect x="67.3677" y="383.3778" width="105.6745" height="6.7913" style="fill:#263238;"></rect><rect x="101.0362" y="383.3778" width="72.0211" height="6.7913" style="fill:#fff; isolation:isolate; opacity:.3;"></rect><rect x="67.3677" y="145.3032" width="7.7464" height="311.9603" style="fill:#407BFF;"></rect><rect x="67.3677" y="145.3032" width="7.7464" height="311.9603" style="fill:#fff; isolation:isolate; opacity:.2;"></rect><rect x="71.2485" y="149.1537" width="3.8807" height="308.1099" style="fill:#fff; isolation:isolate; opacity:.3;"></rect><polygon points="111.7083 457.2636 103.9468 457.2636 73.6134 145.3032 81.3748 145.3032 111.7083 457.2636" style="fill:#407BFF;"></polygon><polygon points="111.7083 457.2636 103.9468 457.2636 73.6134 145.3032 81.3748 145.3032 111.7083 457.2636" style="fill:#fff; isolation:isolate; opacity:.2;"></polygon><polygon points="111.7083 457.2636 106.9786 457.2636 76.6452 145.3032 81.3748 145.3032 111.7083 457.2636" style="fill:#fff; isolation:isolate; opacity:.3;"></polygon><rect x="67.3677" y="140.0582" width="105.6745" height="6.7913" style="fill:#263238;"></rect><rect x="101.0362" y="140.0582" width="72.0211" height="6.7913" style="fill:#fff; isolation:isolate; opacity:.3;"></rect><path d="M91.2435,129.1827c-1.23-2.9831-1.1195-6.3508,.3032-9.247,2.4406-4.5477,3.1531-5.6695,1.5159-6.6094-1.6372-.9398-2.2587,3.6685-2.2587,3.6685-.7759-2.0811-.8557-4.3578-.2274-6.4881,1.0763-3.3198,1.7585-8.7317,.2729-9.3078-1.4856-.576-.2729,6.7459-1.5159,9.2471-.6527-1.7573-1.0756-3.5916-1.2583-5.4573-.1667-2.668,.1062-6.9125-1.0611-8.004-1.1673-1.0914-1.91-.3487-.7731,5.5331,.6885,3.4971,1.069,7.0478,1.1369,10.6114,0,0-2.5315-7.716-4.2294-7.9434-1.6978-.2274-1.6978,2.2739-.2426,4.4416,1.4554,2.1678,4.2598,6.0637,4.7297,8.0495,0,0-2.7892-5.8059-5.2753-4.0171-2.4862,1.7888,2.1677,5.2753,4.2446,6.5488,2.0767,1.2733,3.532,9.2167,3.532,9.2167l1.1066-.2426Z" style="fill:#407BFF;"></path><path d="M91.2435,129.1827c-1.23-2.9831-1.1195-6.3508,.3032-9.247,2.4406-4.5477,3.1531-5.6695,1.5159-6.6094-1.6372-.9398-2.2587,3.6685-2.2587,3.6685-.7759-2.0811-.8557-4.3578-.2274-6.4881,1.0763-3.3198,1.7585-8.7317,.2729-9.3078-1.4856-.576-.2729,6.7459-1.5159,9.2471-.6527-1.7573-1.0756-3.5916-1.2583-5.4573-.1667-2.668,.1062-6.9125-1.0611-8.004-1.1673-1.0914-1.91-.3487-.7731,5.5331,.6885,3.4971,1.069,7.0478,1.1369,10.6114,0,0-2.5315-7.716-4.2294-7.9434-1.6978-.2274-1.6978,2.2739-.2426,4.4416,1.4554,2.1678,4.2598,6.0637,4.7297,8.0495,0,0-2.7892-5.8059-5.2753-4.0171-2.4862,1.7888,2.1677,5.2753,4.2446,6.5488,2.0767,1.2733,3.532,9.2167,3.532,9.2167l1.1066-.2426Z" style="isolation:isolate; opacity:.2;"></path><path d="M89.5609,131.017c1.1903-2.9941,1.0413-6.3548-.4093-9.2319-2.5013-4.5477-3.2138-5.6241-1.6675-6.5791,1.5462-.955,2.3042,3.6382,2.3042,3.6382,.7457-2.0955,.7988-4.3752,.1515-6.5032-1.1218-3.3047-1.8646-8.7014-.3941-9.2926,1.4704-.5912,.3638,6.7306,1.6675,9.2167,.6331-1.765,1.0356-3.6043,1.1976-5.4724,.1364-2.668-.182-6.9125,.9701-8.0192,1.1521-1.1066,1.9101-.379,.8338,5.5331-.6435,3.5013-.9834,7.0517-1.0156,10.6114,0,0,2.4405-7.7463,4.1384-8.004,1.6978-.2577,1.7281,2.2587,.288,4.4416-1.4401,2.183-4.1839,6.0637-4.5477,8.1253,0,0,2.6983-5.8514,5.2147-4.1081,2.5164,1.7432-2.1071,5.3208-4.1687,6.6094-2.0616,1.2885-3.426,9.2773-3.426,9.2773l-1.1369-.2425Z" style="fill:#407BFF;"></path><polygon points="99.1415 127.682 81.9812 127.682 83.376 139.961 97.762 139.961 99.1415 127.682" style="fill:#263238;"></polygon><g style="opacity:.3;"><polygon points="99.1415 127.682 81.9812 127.682 83.376 139.961 97.762 139.961 99.1415 127.682" style="fill:#fff;"></polygon></g><path d="M127.8679,190.7201v4.6994h.758v.7579h-35.1238c-1.7162,0-3.1076-1.3913-3.1076-3.1076s1.3914-3.1076,3.1076-3.1076h35.1238v.7579h-.758Z" style="fill:#407BFF;"></path><path d="M127.8679,190.7201v4.6994h.758v.7579h-17.7363c-1.7162,0-3.1075-1.3913-3.1075-3.1076s1.3913-3.1076,3.1075-3.1076h17.7363v.7579h-.758Z" style="fill:#fff; isolation:isolate; opacity:.3;"></path><path d="M127.8679,190.7201v4.6994h-16.9783c-1.3057,.0251-2.3847-1.0131-2.4098-2.3189l-.0004-.0308c-.0084-1.2892,1.0299-2.3412,2.3192-2.3497,.0102-.0001,.0203-.0001,.0304,0h17.0389Z" style="fill:#fff; isolation:isolate; opacity:.7;"></path><path d="M131.6426,184.5049v4.6993h.7579v.758h-35.1237c-1.7163,0-3.1077-1.3914-3.1077-3.1077s1.3914-3.1076,3.1077-3.1076h35.1237v.758h-.7579Z" style="fill:#263238;"></path><path d="M131.6426,184.5049v4.6993h.7579v.758h-17.7362c-1.7163,0-3.1076-1.3914-3.1076-3.1077s1.3913-3.1076,3.1076-3.1076h17.7362v.758h-.7579Z" style="fill:#fff; isolation:isolate; opacity:.3;"></path><path d="M131.6426,184.5049v4.6993h-16.9783c-1.2942-.0082-2.3414-1.0554-2.3496-2.3497-.0084-1.2893,1.0299-2.3413,2.3192-2.3496,.0101-.0001,.0203-.0001,.0304,0h16.9783Z" style="fill:#fff; isolation:isolate; opacity:.7;"></path><path d="M126.8978,178.2896v4.6993h.7579v.758h-35.1237c-1.7164,0-3.1077-1.3914-3.1077-3.1076,0-1.7163,1.3913-3.1077,3.1077-3.1077h35.1237v.758h-.7579Z" style="fill:#407BFF;"></path><path d="M126.8978,178.2896v4.6993h.7579v.758h-17.6603c-1.7164,0-3.1077-1.3914-3.1077-3.1076,0-1.7163,1.3913-3.1077,3.1077-3.1077h17.7361v.758h-.8337Z" style="fill:#fff; isolation:isolate; opacity:.3;"></path><path d="M126.8978,178.2896v4.6993h-16.9024c-1.3057,.0337-2.3914-.9975-2.4249-2.3032l-.0006-.0312c-.0178-1.2892,1.0129-2.3487,2.3021-2.3664,.0411-.0007,.0823-.0001,.1234,.0015h16.9024Z" style="fill:#fff; isolation:isolate; opacity:.7;"></path><path d="M133.2343,351.2859h0c4.2531,0,7.7008,3.4478,7.7008,7.7008v11.3543c0,4.253-3.4477,7.7008-7.7008,7.7008h0c-4.2531,0-7.7008-3.4478-7.7008-7.7008v-11.3543c0-4.253,3.4477-7.7008,7.7008-7.7008Z" style="fill:#263238;"></path><rect x="131.3545" y="371.1292" width="3.7292" height="12.2638" style="fill:#263238;"></rect><rect x="127.398" y="382.2257" width="11.6574" height="1.1521" style="fill:#263238;"></rect><path d="M133.2343,351.2859h0c4.2531,0,7.7008,3.4478,7.7008,7.7008v11.3543c0,4.253-3.4477,7.7008-7.7008,7.7008h0c-4.2531,0-7.7008-3.4478-7.7008-7.7008v-11.3543c0-4.253,3.4477-7.7008,7.7008-7.7008Z" style="fill:#fff; isolation:isolate; opacity:.3;"></path></g></g><g id="freepik--Speech_Bubble--inject-329"><g><g><g><path d="M331.29479,89.3918c-5.5293,12.0069-19.7454,17.2582-31.7523,11.7288-12.0072-5.5293-17.2584-19.7455-11.7291-31.7525,5.5294-12.0071,19.74561-17.2582,31.7527-11.7289,12.007,5.5294,17.2581,19.7454,11.7287,31.7526Z" style="fill:#407BFF;"></path><polygon points="298.63229 94.5242 292.53929 95.444 292.00969 103.1993 299.287 100.8513 298.63229 94.5242" style="fill:#407BFF;"></polygon></g><path d="M337.00293,73.56885c-.12695,0-.23535-.09521-.24902-.22363-.80078-7.62695-5.75098-14.77051-12.60938-18.19873-.12402-.06152-.17383-.21191-.1123-.33545,.0625-.12402,.21484-.17383,.33496-.11182,7.00781,3.50293,12.06543,10.80127,12.88477,18.59326,.01367,.1377-.08594,.26074-.22266,.2749l-.02637,.00146Z" style="fill:#407BFF;"></path><path d="M337.15332,80.66553c-.01855,0-.03809-.00195-.05762-.00684-.13477-.03174-.21777-.1665-.18555-.30078,.26562-1.1167,.29785-2.30322,.09375-3.43213-.02441-.13574,.06543-.26611,.20215-.29053,.13086-.02197,.26562,.06592,.29004,.20166,.21582,1.19629,.18164,2.45361-.09961,3.63623-.02734,.11523-.12988,.19238-.24316,.19238Z" style="fill:#407BFF;"></path><g style="opacity:.7;"><g><path d="M331.29479,89.3918c-5.5293,12.0069-19.7454,17.2582-31.7523,11.7288-12.0072-5.5293-17.2584-19.7455-11.7291-31.7525,5.5294-12.0071,19.74561-17.2582,31.7527-11.7289,12.007,5.5294,17.2581,19.7454,11.7287,31.7526Z" style="fill:#fff;"></path><polygon points="298.63229 94.5242 292.53929 95.444 292.00969 103.1993 299.287 100.8513 298.63229 94.5242" style="fill:#fff;"></polygon></g></g></g><g><path d="M304.98939,72.5828c1.303-2.0401,2.2869-4.18,3.5899-6.2201,1.3031,2.0401,2.2871,4.18,3.5901,6.2201,2.3633,3.7002,4.8349,7.351,4.1449,11.8896-.498,3.2759-4.0855,7.1245-7.54429,6.8988l-.00011-.0095c-3.4588,.2256-7.4274-3.6134-7.9255-6.8893-.69-4.5386,1.7817-8.1894,4.145-11.8896Z" style="fill:#407BFF;"></path><g style="opacity:.2;"><path d="M307.52029,87.9078c.0502-.9107,.8865-1.2619,1.4985-1.7691,.92421-.7659,1.3723-1.9455,1.8588-3.0428,.1645-.3708,.439-.8437,.7727-1.3263,1.0886-1.5744,3.5453-.6262,3.3239,1.2751-.0085,.0728-.0185,.1452-.03,.2173-.2117,1.3286-.53619,2.6139-1.2768,3.7371-.5126,.7773-1.41739,1.4693-2.1812,2.0019-.9237,.6442-2.179,.9146-3.1874,.2897-.48-.2975-.8096-.8191-.7785-1.3829Z" style="fill:#fff;"></path></g></g><g><rect x="319.05229" y="68.3053" width="2.4522" height="6.8663" transform="translate(640.55678 143.4769) rotate(180)" style="fill:#407BFF;"></rect><rect x="319.05224" y="68.30535" width="2.4522" height="6.8663" transform="translate(248.53984 392.01684) rotate(-90)" style="fill:#407BFF;"></rect></g></g></g><g id="freepik--Character--inject-329"><g><g><path d="M305.61069,439.2206c.1329-1.5628,.0306-2.8653-1.6466-2.9601l-2.375-.1342c-.8978,0-1.5389,.5989-2.2587,1.0996-5.4431,3.7862-7.6763-1.1021-9.7889-1.0996-2.714-.0025-.9677,8.673-1.0969,9.1284l-2.9662,10.0675c-.2575,.8408,.2639,2.6558,1.1649,2.8962,.1603,.0428,.3264,.0632,.4931,.0609h31.4361c4.9997,0,5.0574-6.1211,2.9981-6.5562-9.2613-1.9095-12.91459-4.9391-15.9658-7.1547,0,0-.1982-2.9459,.0059-5.3478Z" style="fill:#407BFF;"></path><path d="M318.57239,458.2793h-31.436c-.1667,.0023-.3328-.0181-.4931-.0609-.6117-.1632-1.0411-1.0507-1.1778-1.868l.0129-.7665h37.1081c-.4937,1.4242-1.7369,2.6954-4.0141,2.6954Z" style="fill:#fff; opacity:.4;"></path><path d="M310.16243,447.59433c-.80433,.74079-1.47354,1.63174-1.95864,2.6118-.0898,.18142-.04871,.40589,.13453,.51307,.16566,.09689,.42287,.0477,.51307-.13453,.46672-.94293,1.06975-1.74935,1.84136-2.46,.14902-.13725,.13906-.39127,0-.53033-.14842-.14842-.38092-.13761-.53033,0h0Z" style="fill:#263238;"></path><path d="M307.35563,445.94093c-.73878,.70531-1.36863,1.52805-1.85564,2.4259-.0935,.17238-.0484,.41642,.13453,.51307,.17497,.09244,.41319,.04961,.51307-.13453,.47197-.87012,1.02454-1.59263,1.73836-2.2741,.14218-.13573,.14688-.3955,0-.53033-.15256-.14005-.37865-.14481-.53033,0h0Z" style="fill:#263238;"></path><path d="M305.41552,444.2446c-.41946,.22906-.81264,.51381-1.16887,.83199-.34837,.31115-.68088,.67761-.88506,1.10155-.08498,.17644-.05426,.41332,.13453,.51307,.16776,.08863,.4222,.05415,.51307-.13453,.04332-.08995,.09235-.17676,.14691-.26038,.02861-.04385,.05854-.08683,.08953-.12903,.02351-.03202,.03396-.04417,.00319-.00553,.01848-.0232,.03693-.0464,.05583-.06926,.14405-.17416,.30392-.335,.47232-.48555,.08581-.07672,.17447-.14991,.26417-.222,.05523-.04439-.0252,.0183,.01017-.00822l.0618-.04656c.04908-.03647,.09868-.07223,.14881-.10724,.17134-.11967,.3487-.23051,.53213-.33068,.17235-.09412,.24207-.34627,.13453-.51307-.11268-.17478-.3287-.23521-.51307-.13453h0Z" style="fill:#263238;"></path><g style="opacity:.3;"><path d="M296.42819,442.2514c-.0487,.8997-.3651,1.8865-1.1635,2.3038-.49469,.2588-1.0811,.2487-1.6392,.2325-1.6683-.0484-3.3364-.0967-5.00449-.1451l-.02031-.0479c-.2636-2.3695-.9704-8.1513,1.0976-8.1492,1.6275-.0021,3.3369,3.3173,6.7401,2.3483-.028,1.2545,.02261,2.853-.0102,3.4576Z"></path></g></g><g><path d="M238.52939,459.0115h20.0841s.4382-.8436-.0624-3.0892c-.0764-.3499-.17609-.7345-.3057-1.1538-.0071-.0209-.0117-.0419-.0185-.0626-.1878-.6211-.4035-1.3857-.6328-2.2109-.9198-3.3624-1.5463-11.0971-1.5463-11.0971,0,0-3.7974-3.8125-7.7067-2.0258-3.4297,1.5665-2.897,3.5531-2.897,3.5531,0,0-.0553,5.13-2.6554,7.4518-1.6083,1.4345-3.2072,2.5447-3.9766,4.3289-.1436,.3335-.2572,.6881-.3383,1.0728-.0092,.0464-.0186,.0951-.0255,.1436-.1599,.8598-.1506,1.8679,.0811,3.0892Z" style="fill:#407BFF;"></path><g style="opacity:.4;"><path d="M258.55109,455.9223c.5006,2.2456,.0624,3.0892,.0624,3.0892h-20.0841c-.2317-1.2213-.241-2.2294-.0811-3.0892h20.1028Z" style="fill:#fff;"></path></g><path d="M246.53359,446.5486c1.1296-.88,2.6117-.7659,3.6278,.2251,.2732,.2664,.69261-.1523,.4191-.4191-1.2681-1.2369-3.0787-1.3059-4.4661-.225-.3006,.2342,.12161,.6511,.4192,.419h0Z" style="fill:#263238;"></path><path d="M245.96639,448.4245c1.1297-.8803,2.6118-.766,3.628,.225,.2731,.2666,.69261-.1521,.4191-.4191-1.2681-1.237-3.0787-1.3062-4.4661-.2252-.3006,.2342,.1214,.651,.419,.4193h0Z" style="fill:#263238;"></path><path d="M245.39709,450.149c1.1296-.8803,2.6118-.7661,3.62791,.2251,.27309,.2664,.69269-.1524,.41889-.4192-1.268-1.2371-3.0786-1.3059-4.4658-.2253-.3008,.2345,.1214,.6512,.419,.4194h0Z" style="fill:#263238;"></path></g><g><g><path d="M236.44949,249.4989l39.80351,1.1381,25.871,.6362s3.24589,88.3257,4.85829,103.1089c1.612,14.7832,2.4953,87.6795,2.4953,87.6795l-24.6317,.4529s-7.6108-75.6503-8.78089-86.6228c-.75461-7.0752-5.50041-67.3102-5.57-68.5777-.42711,2.3274-.86511,4.6648-1.31171,6.9835-1.074,10.4774-3.113,44.0267-4.6119,56.4574,0,0-1.76539,71.522-4.2503,93.5133h-23.26509s-.70271-68.5996-2.38271-171.5974l1.7762-23.1719Z" style="fill:#263238;"></path><polygon points="270.18149 288.1011 270.495 277.9331 284.25659 275.2829 273.49919 279.7715 270.18149 288.1011" style="opacity:.3;"></polygon></g><path d="M235.17749,266.0926s26.8574,4.5073,42.0416,2.2652c15.1841-2.2421,25.3238-5.9952,25.3238-5.9952v-3.2223l-67.1885,2.7403-.1769,4.212Z" style="opacity:.3;"></path><path d="M239.41,263.9025c-.0004,23.52974-.05676,47.05943-.127,70.58905-.06955,23.29582-.15168,46.59162-.20155,69.88749-.02847,13.29637-.04622,26.59276-.04644,39.88916,0,.48259,.74999,.48339,.75,0,.0004-23.52976,.05676-47.05947,.127-70.58912,.06955-23.29582,.15168-46.5916,.20155-69.88747,.02847-13.29635,.04622-26.59272,.04644-39.88911,0-.48259-.74999-.48339-.75,0h0Z" style="fill:#fff; opacity:.3;"></path><path d="M279.63109,265.6253c-.2975,2.82803-.5949,5.65606-.8923,8.4841-.05042,.47947,.69995,.47593,.75,0,.2974-2.82804,.5948-5.65607,.8923-8.4841,.05044-.47947-.69993-.47593-.75,0h0Z" style="fill:#fff; opacity:.3;"></path><path d="M273.12419,280.3543c.60147,7.86179,1.31101,15.71575,2.01085,23.56924,1.04967,11.77922,2.12684,23.55598,3.20703,35.33244,1.20412,13.12757,2.41517,26.25451,3.62084,39.38194,1.10992,12.08502,2.21746,24.17029,3.30123,36.25769,.75928,8.46835,1.52304,16.93708,2.19854,25.41262,.0542,.68007,.10748,1.36022,.15952,2.04046,.03658,.4782,.78689,.48216,.75,0-.60146-7.86179-1.31101-15.71575-2.01085-23.56924-1.04967-11.77922-2.12684-23.55598-3.20702-35.33244-1.20412-13.12757-2.41517-26.25451-3.62084-39.38194-1.10992-12.08502-2.21747-24.17029-3.30123-36.25769-.75928-8.46835-1.52304-16.93708-2.19854-25.41262-.0542-.68007-.10748-1.36022-.15952-2.04046-.03658-.4782-.78689-.48216-.75,0h0Z" style="fill:#fff; opacity:.3;"></path></g><g><path d="M251.95459,153.4818c.9027,2.2944,8.0767,8.1506,13.4979,9.2048,5.701,1.1087,7.9568-4.9824,5.7178-8.5046-.3965-.8099-.7339-1.6618-1.01229-2.5475-.43021-1.3918-.70011-2.8679-.79291-4.4116-.0337-.4978-.0506-.9954-.0337-1.51,.0084-.6158,.059-1.2315,.1349-1.8726,0-.0169,.0084-.0337,.0084-.0506,.0338-.2615,.0506-.523,.10131-.7929,.04219-.194,.06749-.3965,.10959-.5905l.4471-2.9102-3.2223-1.3159-8.3425-3.3994-7.6592-5.2468c1.9992,6.9339,1.8642,16.0187,1.0459,23.9478Z" style="fill:#ff8b7b;"></path><g style="opacity:.3;"><path d="M261.04129,143.1718c2.4125,1.0966,5.6329,1.4445,8.425,.6685,0-.0169,.0084-.0337,.0084-.0506,.0338-.2615,.0506-.523,.10131-.7929,.04219-.194,.06749-.3965,.10959-.5905l.4471-2.9102-3.2223-1.3159-8.9667,.9195c-.5229,.9278,.6261,2.9502,3.0976,4.0721Z"></path></g><path d="M243.56859,120.4664c-5.1305-10.5286,2.0902-23.0689,14.2598-23.1413,12.352-.0735,20.4574,15.3524,22.1508,26.0179,1.8814,11.8492-9.4074,22.3104-21.0635,17.3636-7.7489-3.2887-10.2165-9.7116-15.3471-20.2402" style="fill:#ff8b7b;"></path><path d="M270.61229,98.1283c1.181,.1385,2.4023,.2904,3.4223,.9017s1.7855,1.8165,1.5045,2.9719c-.2954,1.2143-1.57809,1.912-2.7907,2.2141-2.1099,.5257-4.4005,.2927-6.36139-.6469,.617,1.0506,.34319,2.9363-.73321,3.5073-1.4872,.7891-4.5076,.5131-5.7209,.4013-5.1865-.4778-7.4565-.8594-12.4782-.6819,1.1849,1.1468,2.3821,2.3087,3.25631,3.7069,.87419,1.3982,1.40629,3.0791,1.127,4.7043-.27931,1.6252-1.49991,3.1398-3.12061,3.4442,1.7661,1.604,3.078,3.7029,3.7461,5.9933,.1856,.6364,.29951,1.3933-.1244,1.9029-.531,.6382-1.5376,.4883-2.3276,.2331-3.2893-1.0623-6.3017-2.9699-8.6683-5.4892,0,0,.6153-16.1348,0-16.2417-.6153-.107,4.55781-5.0395,4.55781-5.0395l13.11329-4.0903,11.598,2.2085Z" style="fill:#263238;"></path><path d="M267.63909,115.7846s1.9542,1.8355,4.614,2.2807c2.65991,.4451,2.8977,1.8247,1.7968,3.2659-.9112,1.1928-2,1.2655-2,1.2655-1.7001-1.49-3.1034-3.9882-4.4108-6.8121Z" style="fill:#ff5652;"></path><path d="M272.719,116.2926c.29029,0,.59669-.0628,.91-.2196,1.508-.7548,1.39169-2.2005,1.38619-2.2619-.0178-.1935-.1929-.3383-.3826-.3173-.1925,.0182-.3342,.188-.3174,.3805,.00381,.0487,.0642,1.0373-1.0006,1.5702-1.06059,.5328-2.1153-.6105-2.12559-.6225-.13071-.1438-.35241-.1531-.49651-.0237-.1434,.1304-.1541,.3528-.0237,.4965,.046,.0504,.923,.9975,2.05021,.9978Z" style="fill:#263238;"></path><path d="M263.00609,120.0979c.433,0,.8917-.1118,1.3323-.409,1.5342-1.0355,1.3084-2.4856,1.2981-2.5467-.0322-.1915-.2124-.3174-.4052-.2879-.1908,.0326-.3192,.2127-.28829,.4032,.00829,.0535,.14339,1.0788-.99781,1.8488-1.1244,.7593-2.3199-.1891-2.3699-.23-.1518-.1217-.372-.0988-.4942,.0509-.12209,.1499-.1008,.3706,.0488,.4934,.3643,.2989,1.07811,.6773,1.8762,.6773Z" style="fill:#263238;"></path><path d="M271.54679,127.4462c.48321,1.2545,1.7087,1.9501,2.7373,1.5539,1.0287-.3962,1.4708-1.7343,.9876-2.9886-.4831-1.2544-1.7086-1.9501-2.7373-1.5539-1.0286,.3962-1.4707,1.7343-.9876,2.9886Z" style="opacity:.3;"></path><path d="M241.91219,129.5882c1.9576,2.4781,4.87681,3.8211,7.4589,4.082,3.88391,.3925,5.1612-3.242,3.5254-6.5592-1.47249-2.9862-5.2676-6.7884-8.8982-5.6391-3.5769,1.1324-4.32429,5.2829-2.0861,8.1163" style="fill:#ff8b7b;"></path><path d="M273.38439,109.6979c-.1501,.0616-.3279,.0431-.4637-.0647-.6108-.48-1.2206-.6836-1.8128-.6053-.9743,.1293-1.6307,.9782-1.6371,.9881-.14879,.2018-.4433,.2495-.6497,.0941-.2059-.1536-.2484-.445-.0947-.6508,.0344-.0469,.8888-1.1721,2.2594-1.3531,.8501-.113,1.6946,.1553,2.509,.7964,.2025,.1583,.2375,.4508,.0784,.6529-.0517,.0651-.1171,.113-.1888,.1424Z" style="fill:#263238;"></path><path d="M258.51759,116.1973c-.0632,.026-.13359,.0379-.2063,.0331-.2555-.0167-.4497-.2361-.4335-.4914,.0036-.0597,.1023-1.4666,1.15021-2.3691,.64969-.5594,1.50279-.7973,2.53629-.7063,.2565,.0222,.4459,.2475,.4228,.5036-.0227,.2568-.2489,.4452-.5038,.4223-.7711-.0674-1.391,.0931-1.8431,.4804-.7508,.6416-.8335,1.7174-.8344,1.7282-.0126,.1826-.1291,.3339-.2882,.3992Z" style="fill:#263238;"></path><path d="M250.1635,128.70331c-.43857-2.71447-2.99188-4.67027-5.7276-4.39331-.47561,.04815-.48058,.79865,0,.75,1.19899-.12138,2.4362,.20302,3.37601,.97324,.88194,.72279,1.44722,1.74814,1.62839,2.86945,.03255,.20146,.28085,.30948,.46129,.26191,.21328-.05622,.29406-.26235,.26191-.46129h0Z" style="opacity:.3;"></path><path d="M253.25839,94.2555c-.9588-.042-1.9203,.0581-2.8491,.2998-3.4708,.9033-6.7925,2.5021-9.2669,5.0739-2.85339,2.9657-3.8303,5.1947-2.7035,9.1529-4.6336,1.0899-4.1106,8.0959-2.8392,10.3269,1.2715,2.231,5.8128,2.9618,6.3181,3.0325,7.3373-4.2368,1.163-9.2645,2.025-13.4102,.6626-3.1864,3.295-5.6769,6.2593-7.0206s6.26-1.7245,9.4942-2.0889l15.7712,1.1315c-.5918-3.2418-5.6374-4.5624-8.292-4.6769,0,0,3.978-2.1379,1.45851-4.065-2.485-1.9008-5.08681,2.6945-15.37561,2.2441Z" style="fill:#263238;"></path><path d="M242.13867,119.29199c-.22412,0-.44873-.03223-.66602-.09961-.87402-.27051-1.5415-1.07227-1.66162-1.99512-.01758-.13721,.0791-.26221,.21582-.28027,.13184-.01904,.26221,.0791,.28027,.21582,.09326,.72119,.63379,1.37158,1.31348,1.58203,.68896,.21436,1.50293-.03662,1.93555-.5957,.43896-.56543,.45996-1.42188,.0498-1.99219-.08008-.11182-.05518-.26709,.05615-.34814,.10986-.08154,.26611-.05762,.34814,.05371,.27002,.36621,.54883,.74463,.91113,.99805,.28955,.20166,.73584,.36426,1.12744,.2124,.4458-.17334,.66406-.70557,.67725-1.12695,.0166-.5332-.12207-1.26514-.33008-1.73926-.06396-.146-.12793-.30322-.19238-.4624-.15771-.39014-.32129-.79297-.49707-1.0415-.07959-.11279-.05322-.26855,.05957-.34863,.1123-.07812,.26807-.05322,.34863,.05957,.20947,.2959,.38379,.72656,.55273,1.14258,.0625,.15479,.12402,.30762,.18652,.44922,.23779,.54346,.39111,1.34766,.37207,1.95605-.01953,.6001-.33496,1.3208-.99658,1.57715-.48633,.19043-1.08252,.08887-1.59424-.26807-.08154-.05713-.15869-.11865-.23242-.18359,.00488,.48535-.146,.97461-.45117,1.36865-.42773,.55176-1.11621,.86621-1.81299,.86621Z" style="fill:#fff; opacity:.3;"></path><path d="M255.95809,91.9121c.6034-.6228,1.1551-1.3209,1.9037-1.7583,.7486-.4375,1.779-.5458,2.4363,.0198,.574,.494,.6945,1.3734,.4581,2.0929-.2365,.7195-.7659,1.3041-1.3303,1.8091-1.7607,1.5753-4.01389,2.5921-6.3601,2.8701l-3.7537-1.4844c2.5112-.4564,4.8701-1.7161,6.646-3.5492Z" style="fill:#263238;"></path><path d="M240.2121,108.52182c-1.11669-1.51876-2.2978-2.99031-3.55215-4.39768-.52366-.58755-1.59481-.57356-2.12132,0-.57569,.62713-.55858,1.4946,0,2.12132,.87699,.98399,1.71913,1.99823,2.52506,3.04121l-.23455-.30358c.26812,.348,.5323,.69895,.79253,1.05289,.23894,.32497,.49327,.57831,.89645,.68934,.35906,.09888,.83717,.05423,1.15584-.15121,.32028-.20649,.60222-.51397,.68934-.89645,.08419-.36962,.08348-.83665-.15121-1.15584h0Z" style="fill:#263238;"></path><path d="M240.22935,108.55804c-2.07455-1.64596-4.71074-2.54539-7.37226-2.23144-.41125,.04851-.75648,.13516-1.06066,.43934-.26016,.26016-.45608,.68701-.43934,1.06066,.03287,.73387,.66541,1.59845,1.5,1.5,.54968-.06484,1.10259-.07981,1.65467-.03709,.10923,.00845,.31524-.00847,.4123,.04207l-.19347-.02503c.06832,.01035,.13651,.02152,.20456,.03351,.27223,.04798,.54215,.10911,.80851,.18302,.26634,.0739,.52927,.16046,.78724,.25974,.04842,.01849,.09661,.03756,.14456,.05721,.10408,.04235,.06421,.02553-.11962-.05046,.11246,.01008,.27407,.1258,.37508,.17633,.24708,.1236,.48814,.25928,.72181,.40668,.11684,.0737,.23184,.15031,.34482,.22981,.05651,.03975,.1125,.08022,.16797,.1214-.16572-.13044-.18489-.14525-.05751-.04442,.32395,.25702,.6297,.43934,1.06066,.43934,.3679,0,.80736-.16341,1.06066-.43934,.49777-.54225,.65644-1.60049,0-2.12132h0Z" style="fill:#263238;"></path></g><path d="M288.95169,123.428c-.3423,.3869-.8272,1.1315-1.301,1.3372-.4739,.2058-1.0231,.2657-1.5111,.0965-.4881-.1692-.8994-.5868-.9954-1.0944-.096-.5075,.41781-1.3545,.8889-1.6375" style="fill:#ff8b7b;"></path><path d="M283.05359,134.9163c.11341-.2663,.4293-.375,.7139-.4273,.9924-.1823,2.0431-.0306,2.9434,.4249s1.6449,1.2121,2.086,2.1195l-1.7408,.1581c-1.1138-.3087-2.20109-.7132-3.2459-1.2076-.219-.1036-.4419-.2155-.60319-.3964-.16121-.1809-.24841-.4483-.15341-.6712Z" style="fill:#ff8b7b;"></path><g><path d="M235.76229,188.4184c.3426,.6523-1.3312,10.0963-1.3312,16.1842,0,.281-3.4153,20.4013-3.585,24.0674-.5042,10.8932-5.5824,42.2389-5.5824,42.2389l-9.6314,.691s.0844-45.5673,1.1124-56.4385c1.0279-10.8711,1.7417-16.232,2.6358-22.8161,.728-5.3609,1.4761-7.8405,1.4761-7.8405l14.9057,3.9136Z" style="fill:#ff8b7b;"></path><path d="M231.355,293.3214s-.80221-3.7025-.80221-4.9984-1.6044-9.5032-2.4684-11.1693c-.8639-1.6662-2.4066-3.1472-2.7152-4.3196-.3085-1.1725,0-2.777,0-2.777l-9.75,1.5428s.018,2.2398-.2289,4.5847c-.2468,2.3449-.6649,9.7935-.6191,10.5957,.04581,.8022,.47781,5.1835,1.1566,5.7389l.6788,.5554s1.60441,2.0364,2.7152,2.8386c1.1107,.8022,6.9335,3.2442,7.242,3.2442,.3086,0,1.7675-.3439,1.027-1.6397-.7405-1.2959-3.4727-3.6409-3.4727-3.6409,0,0-.0786-7.0965,0-7.7753,.0787-.6788,1.5597-.7405,1.9917-.1234,.4319,.6171,.1851,3.9493,1.2958,5.5538,1.1108,1.6044,1.6721,2.4312,2.4638,3.037,.1524,.1166,1.6082-.1629,1.48561-1.2475Z" style="fill:#ff8b7b;"></path><path d="M242.55059,178.2929l-5.9532,22.7982s-15.0745,1.0914-21.8297-6.6431c0,0,7.0284-33.1559,14.10031-37.8103,6.96059-4.5811,16.97539,10.5797,13.68259,21.6552Z" style="fill:#407BFF;"></path></g><g><path d="M309.66079,136.1262c.5416,.2708,29.056,21.4621,28.3355,33.3157-.421,6.9261-6.0955,8.8467-14.1352,8.851-5.6318,.0031-11.0493-2.758-11.0493-2.758l4.46821-12.9985-16.47741-21.0887,8.8582-5.3215Z" style="fill:#ff8b7b;"></path><path d="M285.29589,123.7867s.1865-2.2762,2.1327-2.1416c1.4799,.1023,1.3615,1.2056,1.3615,1.2056,0,0,.7764-.8669,2.2517-.936,1.4753-.0692,1.8636,.4744,1.8636,.4744,0,0,.5908-1.4269,2.6057-1.0453,1.1108,.2103,2.9002,2.7931,2.9002,2.7931,0,0,3.2424,.8922,4.49771,1.9016,1.25529,1.0094,6.75179,10.0877,6.75179,10.0877l-6.75179,7.0422-10.23661-3.3863s-5.4353-.7765-5.9788-1.1647c-.54359-.3882-1.2424-1.6306-2.2518-1.9412s-2.01879-1.2423-1.0094-2.0965c1.0094-.8541,5.3577,.3106,5.513,.5436,.1552,.2329,1.6305-1.0095,1.6305-1.0095l.233-2.7176s-5.8983-6.3105-5.513-7.6095Z" style="fill:#ff8b7b;"></path><path d="M313.34959,157.4834c-.1618-.2116-18.79959-6.9167-23.5803-8.2583-4.7808-1.3416-20.0867-2.3877-20.0867-2.3877,0,0,1.9742,8.2119-5.5222,8.7235-7.4228,.5066-11.8428-8.6106-11.8428-8.6106,0,0-17.1175,6.9568-21.8792,8.6747l2.6953,18.0555,2.21031,46.8387s-3.02821,4.9133-.33761,9.3377c.4432,.7289-.4448,2.558-1.2283,3.908-.6316,1.088-.8146,2.3784-.5215,3.6019l.809,3.377c.032,.31-1.1522,20.7639-.9319,21.1945,.764,1.4932,45.4278,8.4031,69.3315-1.6035,0,0-1.6969-39.2857-2.4695-45.1448-.9564-7.2531-3.0209-38.3947-3.0209-38.3947,0,0,16.3651,3.7201,17.7993,3.2729,1.4343-.4472,2.50591-17.5318,2.50591-17.5318l-3.93041-5.053Z" style="fill:#407BFF;"></path><g style="opacity:.5;"><path d="M294.87839,132.4511c-1.0801,2.7822-.5925,5.5668,1.0892,6.2197s3.9206-1.0732,5.0007-3.8554c1.0802-2.7822,.5926-5.5669-1.0891-6.2198s-3.9206,1.0733-5.0008,3.8555Z" style="fill:#407BFF;"></path><path d="M278.22849,118.9346c.287-.1077,21.6507,9.661,21.6507,9.661,0,0-3.5907,10.2342-3.9116,10.0752-.321-.1589-22.67-6.6844-22.9165-6.783-.2466-.0986-3.0078-9.881,5.1774-12.9532Z" style="fill:#407BFF;"></path></g><polygon points="296.97479 176.7953 296.97479 164.6492 300.981 177.6123 296.97479 176.7953" style="opacity:.3;"></polygon><g style="opacity:.3;"><path d="M317.28,162.8195c.68819,3.9973,4.08079,7.3818,8.07959,8.0607,0,0-2.4499,1.3514-5.6594-.3176-3.2095-1.6689-4.3335-10.5178-4.3335-10.5178l1.91331,2.4916"></path></g><path d="M276.38819,129.7209c2.0379-.9392,4.4307,.2341,6.6565-.0508,1.8187-.2327,3.3746-1.418,5.14531-1.8941,2.66069-.7153,5.44419,.2298,8.17649,.5848,1.0081,.131,2.082,.2007,2.9113,.7887,.8301,.5886,1.2657,1.6231,1.316,2.6395,.0503,1.0163-.2421,2.0206-.6299,2.9614-.3412,.8274-.7734,1.6431-1.4451,2.2345-.67179,.5915-1.9412,.9958-2.8001,.7443-6.4694-2.2707-12.93869-4.5414-19.408-6.8121-.1756-.0616-.3655-.1346-.4593-.2953-.19939-.3414,.1778-.7354,.5368-.9009Z" style="fill:#407BFF;"></path><path d="M299.9957,128.62891c-4.10317-1.0296-7.63606,8.06213-3.91168,10.07518-.54535-.19722-.98862-.63304-1.27076-1.14589-1.66463-3.06462,1.17447-9.99914,5.18243-8.92929h0Z"></path><path d="M297.92339,125.6364c-.5776,.4673-1.395-.0373-2.136,.0166,.0161,.6011,.1261,2.002-.0275,2.5833-.1536,.5814-.5021,1.1397-1.0417,1.405-.5396,.2652-1.2789,.1558-1.61919-.3399-.28911-.421-.40061-1.5032-.33691-2.0098,.15891-1.2655-.0157-3.6371,.1433-4.9025" style="fill:#ff8b7b;"></path><path d="M292.33879,123.7366c.1811,.5733,.3635,1.1526,.4117,1.7519s-.0489,1.2291-.387,1.7263-.9469,.8328-1.5409,.7398c-.4277-.067-.803-.3434-1.0619-.6904-.259-.347-.4134-.7608-.52869-1.1782-.17441-.6309-.267-1.281-.35911-1.929-.0634-.4464-.1207-.9293,.0965-1.3243" style="fill:#ff8b7b;"></path><g style="opacity:.3;"><path d="M273.92569,128.5531c.0238-.9017,.2566-1.7972,.6751-2.5962l18.8483,7.513c-.3206,.8476-.495,1.7503-.5132,2.6563-5.8523-1.246-11.5328-3.1783-17.1972-5.106-.4616-.1571-.9421-.326-1.2793-.6783-.4419-.4617-.5505-1.1499-.5337-1.7888Z" style="fill:#e0e0e0;"></path></g><g style="opacity:.3;"><path d="M289.96549,232.2753c-13.1711-.4428-26.3053-1.9773-39.2237-4.5824,12.4673,5.5711,25.6998,6.4735,39.2237,4.5824"></path></g></g><polygon points="234.56649 201.144 233.35979 178.4713 231.707 201.144 234.56649 201.144" style="opacity:.3;"></polygon></g></g></svg>
