<svg xmlns="http://www.w3.org/2000/svg" xmlns:xlink="http://www.w3.org/1999/xlink" viewBox="0 0 500 500"><defs><clipPath id="freepik--clip-path--inject-3"><path d="M424.33,390.33l-307.83-1v-60a4.5,4.5,0,0,1,4.5-4.5H416a4.5,4.5,0,0,1,4.5,4.5Z" style="fill:#fff;stroke:#263238;stroke-linecap:round;stroke-linejoin:round"></path></clipPath></defs><g id="freepik--background-simple--inject-3"><path d="M450.6,265.14c2.07-27.54-4.34-56.32-12.92-82C424.93,145.09,400.17,106,358.48,97c-24-5.2-48.5.37-69.11,13.39-19.82,12.53-35.28,28.71-59.64,31.85-24.65,3.17-49.94,1.89-74.72,1.89-63.7,0-115.4,66.93-102.48,136.64s73.86,118,125.56,118c46.45,0,84.67-27.87,128.8-35.36,21.88-3.71,43.85.68,65.51-4.88,25.16-6.46,48.83-21.88,62.77-44.21C444.68,299.16,449.3,282.39,450.6,265.14Z" style="fill:#92E3A9"></path><path d="M450.6,265.14c2.07-27.54-4.34-56.32-12.92-82C424.93,145.09,400.17,106,358.48,97c-24-5.2-48.5.37-69.11,13.39-19.82,12.53-35.28,28.71-59.64,31.85-24.65,3.17-49.94,1.89-74.72,1.89-63.7,0-115.4,66.93-102.48,136.64s73.86,118,125.56,118c46.45,0,84.67-27.87,128.8-35.36,21.88-3.71,43.85.68,65.51-4.88,25.16-6.46,48.83-21.88,62.77-44.21C444.68,299.16,449.3,282.39,450.6,265.14Z" style="fill:#fff;opacity:0.7000000000000001"></path></g><g id="freepik--Frame--inject-3"><line x1="197.67" y1="142" x2="197.67" y2="392" style="fill:none;stroke:#263238;stroke-linecap:round;stroke-linejoin:round"></line><rect x="94.81" y="168.67" width="77.7" height="66.67" style="fill:#263238;stroke:#263238;stroke-linecap:round;stroke-linejoin:round"></rect><rect x="98.7" y="172" width="69.93" height="60" style="fill:#fff;stroke:#263238;stroke-linecap:round;stroke-linejoin:round"></rect><path d="M168.63,190.19c-12.57,8.95-30.59,14.88-51.49,24.21a86,86,0,0,0-18.44,11V232h69.93Z" style="fill:#92E3A9;stroke:#263238;stroke-linecap:round;stroke-linejoin:round"></path><path d="M168.63,172H140.57c-3.12,2.67-6.82,5.66-11.18,8.86-16,11.71-9,23.42,10.12,14.91,9.83-4.38,20.79-14.49,29.12-23.31Z" style="fill:#92E3A9;stroke:#263238;stroke-linecap:round;stroke-linejoin:round"></path><path d="M110.75,178.73c0-4.89-6.08-1.06-12,3.87V195C104.54,189.25,110.75,183.1,110.75,178.73Z" style="fill:#92E3A9;stroke:#263238;stroke-linecap:round;stroke-linejoin:round"></path><circle cx="149.09" cy="216" r="7.45" transform="translate(-96.04 309.77) rotate(-76.32)" style="fill:#fff;stroke:#263238;stroke-linecap:round;stroke-linejoin:round"></circle><path d="M116.61,198.16a5.59,5.59,0,1,1-5.59-5.59A5.59,5.59,0,0,1,116.61,198.16Z" style="fill:#92E3A9;stroke:#263238;stroke-linecap:round;stroke-linejoin:round"></path></g><g id="freepik--Bed--inject-3"><path d="M110,278.67V389.33h64.33V278.67Zm6.24,19.45v-9.56h3.44v9.56Zm5.86,0v-9.56h3.55v9.56Zm6,0v-9.56h3v9.56Zm5.4,0v-9.56h3v9.56Zm5.4,0v-9.56h3v9.56Zm5.41,0v-9.56h3v9.56Zm5.4,0v-9.56h3v9.56Zm5.41,0v-9.56h3v9.56Zm5.4,0v-9.56h3v9.56Zm7.6,0h-2.2v-9.56h2.2Z" style="fill:#fff;stroke:#263238;stroke-linecap:round;stroke-linejoin:round"></path><rect x="110" y="273.25" width="3.56" height="116.08" style="fill:#fff;stroke:#263238;stroke-linecap:round;stroke-linejoin:round"></rect><rect x="170.77" y="273.25" width="3.56" height="116.08" style="fill:#fff;stroke:#263238;stroke-linecap:round;stroke-linejoin:round"></rect><path d="M152.79,302.19s-3.64-1-11.68,2.1-12.24,13.2-12.82,14.35-3.63,4-2.68,5.36,3.45,1,3.45,1h50.51S172.69,300.85,152.79,302.19Z" style="fill:#fff;stroke:#263238;stroke-linecap:round;stroke-linejoin:round"></path><path d="M178.61,299.29s4.44,2,6.86,3.23,4,1.82,2.83-1.62-5.24-9.07-3.42-10.89S223,294.24,223,294.24v31.7H167.7l1.42-21s3.43,1.41,5.65-.81A30.42,30.42,0,0,0,178.61,299.29Z" style="fill:#fff;stroke:#263238;stroke-linecap:round;stroke-linejoin:round"></path><polygon points="190.31 310 194.97 314.65 183.91 319.31 197.88 324.94 204.09 324.94 204.09 292.15 184.3 292.54 186.82 300.88 190.31 310" style="fill:#92E3A9;stroke:#263238;stroke-linecap:round;stroke-linejoin:round"></polygon><path d="M156.41,312s.62,8.88,1.24,11.71,3.1,3,7.23,2.42,24.58-2.42,26.64-3.23-21.48-9.49-24.37-10.3S156,308.78,156.41,312Z" style="fill:#92E3A9;stroke:#263238;stroke-linecap:round;stroke-linejoin:round"></path><path d="M155.79,305.14s.2,2.83-.6,3-1.62-4.84-1.62-4.84-1.41,5.65-4.64,5.45-3-11.91,2-18,10.29-8.08,13.93-6.46,5.65,5.85,5.65,5.85a32.57,32.57,0,0,1,2.22,5.05c.2,1.21-3,.61-6.26,1.21s-3.83-.4-5.65,2.22S155.79,305.14,155.79,305.14Z" style="fill:#263238;stroke:#263238;stroke-linecap:round;stroke-linejoin:round"></path><path d="M155.79,305.14a28.42,28.42,0,0,0,12.92,7.27c8.08,2,14.38-2.14,13.73-6.06-1.21-7.26-7.67-12.51-7.67-12.51a5.62,5.62,0,0,0-2-4.24c-2-1.41-4-1.41-4.24.2a21.51,21.51,0,0,0-.2,2.22l2.83,1.62-.81.6a21.33,21.33,0,0,0-3.84-.6c-1.41,0-1.21,1.41-2.82,1.41s-2.63-3.63-3.23-1.82S155.79,305.14,155.79,305.14Z" style="fill:#fff;stroke:#263238;stroke-linecap:round;stroke-linejoin:round"></path><path d="M159,308s2.42-8.08,4.85-11.91,7.47,0,7.67,2.62-2.63,3.64-4,5.45.2,4.85-.4,6.26S161.65,314.23,159,308Z" style="fill:#263238"></path><polyline points="166.29 305.75 169.12 308.58 170.33 307.36" style="fill:none;stroke:#263238;stroke-linecap:round;stroke-linejoin:round"></polyline><path d="M200,315.64s-11.51-1.21-20-2.42-17-4.85-21-5.25-3.63,1.82-4.44,4.44.4,5,1.21,5,.41.81.81,0,.61-5.45.61-5.45a49.6,49.6,0,0,0,5,1.61,8.17,8.17,0,0,0,4.24,0s25.24,13.13,30.08,13.53,4.85-3.63,4.44-6.06S200,315.64,200,315.64Z" style="fill:#fff;stroke:#263238;stroke-linecap:round;stroke-linejoin:round"></path><polygon points="177.31 310.76 173.88 320.37 189.89 326.32 200.65 326.32 200.65 314.19 177.31 310.76" style="fill:#92E3A9;stroke:#263238;stroke-linecap:round;stroke-linejoin:round"></polygon><path d="M202.33,285.33s-20.66,1.34-19.33,6,18,13,21.67,13S202.33,285.33,202.33,285.33Z" style="fill:#92E3A9;stroke:#263238;stroke-linecap:round;stroke-linejoin:round"></path><path d="M169.55,315.62a7.52,7.52,0,0,0-6.4,4.47" style="fill:none;stroke:#263238;stroke-linecap:round;stroke-linejoin:round"></path><polygon points="181.97 299.52 187.01 310.58 194 311.74 187.01 300.1 181.97 299.52" style="fill:#92E3A9;stroke:#263238;stroke-linecap:round;stroke-linejoin:round"></polygon><path d="M216,283s29.67,5.33,36.33,5.33,15.34-3,40.34.34,38,18.66,41.33,20.33,21,1.33,31.67,4S386,328.33,386,328.33H213Z" style="fill:#92E3A9;stroke:#263238;stroke-linecap:round;stroke-linejoin:round"></path><path d="M253.33,307s11,17.33,23,20" style="fill:none;stroke:#263238;stroke-linecap:round;stroke-linejoin:round"></path><path d="M249.33,309s7,7.33,12.67,11" style="fill:none;stroke:#263238;stroke-linecap:round;stroke-linejoin:round"></path><path d="M207.5,280.69s-9.67,1-9.67,3.67-4,8.95-1.26,42.79c.11,1.38,20.9,1.75,20.83,0-1.72-41.69,4.77-43.46,3.43-45.12S207.5,280.69,207.5,280.69Z" style="fill:#fff;stroke:#263238;stroke-linecap:round;stroke-linejoin:round"></path><path d="M424.33,390.33l-307.83-1v-60a4.5,4.5,0,0,1,4.5-4.5H416a4.5,4.5,0,0,1,4.5,4.5Z" style="fill:#fff"></path><g style="clip-path:url(#freepik--clip-path--inject-3)"><path d="M424.33,390.33l-307.83-1v-60a4.5,4.5,0,0,1,4.5-4.5H416a4.5,4.5,0,0,1,4.5,4.5Z" style="stroke:#263238;stroke-linecap:round;stroke-linejoin:round;opacity:0.36"></path></g><path d="M424.33,390.33l-307.83-1v-60a4.5,4.5,0,0,1,4.5-4.5H416a4.5,4.5,0,0,1,4.5,4.5Z" style="fill:none;stroke:#263238;stroke-linecap:round;stroke-linejoin:round"></path><path d="M416,324.83H183.85v64.72l240.48.78-3.83-61A4.5,4.5,0,0,0,416,324.83Z" style="fill:#92E3A9;stroke:#263238;stroke-linecap:round;stroke-linejoin:round"></path><path d="M419.53,334.24l9.48,55a1,1,0,0,1-1,1.07h-7.94Z" style="fill:#263238;stroke:#263238;stroke-linecap:round;stroke-linejoin:round"></path><path d="M416,324.83H330.92a4.25,4.25,0,0,0-4.25,4.25l-4.34,60.25,102,1-3.83-61A4.5,4.5,0,0,0,416,324.83Z" style="fill:#92E3A9;stroke:#263238;stroke-linecap:round;stroke-linejoin:round"></path><polygon points="258.48 389.64 263.02 330.6 255.36 389.36 258.48 389.64" style="fill:#263238"></polygon><polygon points="413.81 389.64 418.35 330.6 410.69 389.36 413.81 389.64" style="fill:#263238"></polygon><polygon points="270.83 389.64 267.7 330.6 267.68 389.36 270.83 389.64" style="fill:#263238"></polygon><polygon points="338.33 389.64 335.2 330.6 335.18 389.36 338.33 389.64" style="fill:#263238"></polygon><polygon points="208.09 389.64 212.63 330.6 204.96 389.36 208.09 389.64" style="fill:#263238"></polygon><polygon points="220.44 389.64 217.3 330.6 217.28 389.36 220.44 389.64" style="fill:#263238"></polygon><path d="M178.88,324.41c-1.6,0-4.31,1.23-4.61,2.8-1.58,8.49.23,28.33.23,37.62a215.53,215.53,0,0,1-1.75,24.5l24.53,0s-.62-37.85-1.28-50c-.61-11.23,4.91-14.49,4.91-14.49Z" style="fill:#fff;stroke:#263238;stroke-linecap:round;stroke-linejoin:round"></path></g><g id="freepik--Lamp--inject-3"><path d="M126.7,313l-7.09-13.84V279.83h-6.79v19.36L105.73,313a2.43,2.43,0,0,0,2.17,3.55h16.63A2.44,2.44,0,0,0,126.7,313Z" style="fill:#92E3A9;stroke:#263238;stroke-linecap:round;stroke-linejoin:round"></path><polygon points="133.96 283.83 98.46 283.83 107.34 253.33 125.09 253.33 133.96 283.83" style="fill:#263238;stroke:#263238;stroke-linecap:round;stroke-linejoin:round"></polygon><rect x="95" y="316" width="51.33" height="73.33" style="fill:#263238;stroke:#263238;stroke-linecap:round;stroke-linejoin:round"></rect><rect x="122" y="316" width="24.33" height="73.33" style="fill:#fff;stroke:#263238;stroke-linecap:round;stroke-linejoin:round"></rect><rect x="123.33" y="321" width="21.67" height="15.67" style="fill:#fff;stroke:#263238;stroke-linecap:round;stroke-linejoin:round"></rect><rect x="128.67" y="327.33" width="11" height="3" style="fill:#263238;stroke:#263238;stroke-linecap:round;stroke-linejoin:round"></rect><rect x="123.33" y="342.5" width="21.67" height="15.67" style="fill:#fff;stroke:#263238;stroke-linecap:round;stroke-linejoin:round"></rect><rect x="128.67" y="348.83" width="11" height="3" style="fill:#263238;stroke:#263238;stroke-linecap:round;stroke-linejoin:round"></rect><rect x="123.33" y="364" width="21.67" height="15.67" style="fill:#fff;stroke:#263238;stroke-linecap:round;stroke-linejoin:round"></rect><rect x="128.67" y="370.33" width="11" height="3" style="fill:#263238;stroke:#263238;stroke-linecap:round;stroke-linejoin:round"></rect></g><g id="freepik--Device--inject-3"><rect x="258.19" y="84.01" width="131.32" height="236.67" rx="6.75" transform="translate(121.51 526.19) rotate(-90)" style="fill:#263238;stroke:#263238;stroke-miterlimit:10"></rect><rect x="214.35" y="144.41" width="218.05" height="113.55" style="fill:#fff;stroke:#263238;stroke-linecap:round;stroke-linejoin:round"></rect><path d="M435.84,198.68a2.61,2.61,0,1,0,2.61,2.6A2.6,2.6,0,0,0,435.84,198.68Z" style="fill:#fff"></path><path d="M264,156.46l5.85,87.37a.44.44,0,0,0,.87,0l5.94-56.4a.44.44,0,0,1,.87,0l4.67,57a.44.44,0,0,0,.88,0l9.34-82.4a.44.44,0,0,1,.88,0L297.69,243a.44.44,0,0,0,.88,0L303.75,188a.44.44,0,0,1,.88,0l4.93,55.88a.44.44,0,0,0,.88,0l6.81-81.05a.44.44,0,0,1,.87,0l5.22,82a.44.44,0,0,0,.87.06l8.57-42.17a.44.44,0,0,1,.86,0l8.27,42.72a.44.44,0,0,0,.87,0L349,174.57a.44.44,0,0,1,.87,0l6.16,69.49a.44.44,0,0,0,.88,0L364,187.51a.44.44,0,0,1,.87,0l4.31,56.69a.44.44,0,0,0,.88,0L378,162a.44.44,0,0,1,.88,0l5.05,80.5a.44.44,0,0,0,.88,0l4.52-61.31a.44.44,0,0,1,.87,0l4.92,62.55a.44.44,0,0,0,.87,0l4.86-61.89a.44.44,0,0,1,.88,0l3.56,61.52a.44.44,0,0,0,.88,0l8.73-86.94" style="fill:none;stroke:#92E3A9;stroke-miterlimit:10;stroke-width:2px"></path><line x1="257" y1="156.85" x2="258" y2="156.85" style="fill:none;stroke:#263238;stroke-linecap:round;stroke-miterlimit:10;stroke-width:0.5px"></line><line x1="259.99" y1="156.85" x2="418.28" y2="156.85" style="fill:none;stroke:#263238;stroke-linecap:round;stroke-miterlimit:10;stroke-width:0.5px;stroke-dasharray:1.9910399913787842,1.9910399913787842"></line><line x1="419.28" y1="156.85" x2="420.28" y2="156.85" style="fill:none;stroke:#263238;stroke-linecap:round;stroke-miterlimit:10;stroke-width:0.5px"></line><line x1="257" y1="182.77" x2="258" y2="182.77" style="fill:none;stroke:#263238;stroke-linecap:round;stroke-miterlimit:10;stroke-width:0.5px"></line><line x1="259.99" y1="182.77" x2="418.28" y2="182.77" style="fill:none;stroke:#263238;stroke-linecap:round;stroke-miterlimit:10;stroke-width:0.5px;stroke-dasharray:1.9910399913787842,1.9910399913787842"></line><line x1="419.28" y1="182.77" x2="420.28" y2="182.77" style="fill:none;stroke:#263238;stroke-linecap:round;stroke-miterlimit:10;stroke-width:0.5px"></line><line x1="257" y1="248.93" x2="258" y2="248.93" style="fill:none;stroke:#263238;stroke-linecap:round;stroke-miterlimit:10;stroke-width:0.5px"></line><line x1="259.99" y1="248.93" x2="418.28" y2="248.93" style="fill:none;stroke:#263238;stroke-linecap:round;stroke-miterlimit:10;stroke-width:0.5px;stroke-dasharray:1.9910399913787842,1.9910399913787842"></line><line x1="419.28" y1="248.93" x2="420.28" y2="248.93" style="fill:none;stroke:#263238;stroke-linecap:round;stroke-miterlimit:10;stroke-width:0.5px"></line><line x1="264.51" y1="247.38" x2="264.51" y2="251" style="fill:none;stroke:#263238;stroke-linecap:round;stroke-miterlimit:10;stroke-width:0.5px"></line><line x1="273.73" y1="247.38" x2="273.73" y2="251" style="fill:none;stroke:#263238;stroke-linecap:round;stroke-miterlimit:10;stroke-width:0.5px"></line><line x1="282.96" y1="247.38" x2="282.96" y2="251" style="fill:none;stroke:#263238;stroke-linecap:round;stroke-miterlimit:10;stroke-width:0.5px"></line><line x1="292.18" y1="247.38" x2="292.18" y2="251" style="fill:none;stroke:#263238;stroke-linecap:round;stroke-miterlimit:10;stroke-width:0.5px"></line><line x1="301.41" y1="247.38" x2="301.41" y2="251" style="fill:none;stroke:#263238;stroke-linecap:round;stroke-miterlimit:10;stroke-width:0.5px"></line><line x1="310.63" y1="247.38" x2="310.63" y2="251" style="fill:none;stroke:#263238;stroke-linecap:round;stroke-miterlimit:10;stroke-width:0.5px"></line><line x1="319.86" y1="247.38" x2="319.86" y2="251" style="fill:none;stroke:#263238;stroke-linecap:round;stroke-miterlimit:10;stroke-width:0.5px"></line><line x1="329.08" y1="247.38" x2="329.08" y2="251" style="fill:none;stroke:#263238;stroke-linecap:round;stroke-miterlimit:10;stroke-width:0.5px"></line><line x1="338.3" y1="247.38" x2="338.3" y2="251" style="fill:none;stroke:#263238;stroke-linecap:round;stroke-miterlimit:10;stroke-width:0.5px"></line><line x1="347.53" y1="247.38" x2="347.53" y2="251" style="fill:none;stroke:#263238;stroke-linecap:round;stroke-miterlimit:10;stroke-width:0.5px"></line><line x1="356.75" y1="247.38" x2="356.75" y2="251" style="fill:none;stroke:#263238;stroke-linecap:round;stroke-miterlimit:10;stroke-width:0.5px"></line><line x1="365.98" y1="247.38" x2="365.98" y2="251" style="fill:none;stroke:#263238;stroke-linecap:round;stroke-miterlimit:10;stroke-width:0.5px"></line><line x1="375.2" y1="247.38" x2="375.2" y2="251" style="fill:none;stroke:#263238;stroke-linecap:round;stroke-miterlimit:10;stroke-width:0.5px"></line><line x1="384.43" y1="247.38" x2="384.43" y2="251" style="fill:none;stroke:#263238;stroke-linecap:round;stroke-miterlimit:10;stroke-width:0.5px"></line><line x1="393.65" y1="247.38" x2="393.65" y2="251" style="fill:none;stroke:#263238;stroke-linecap:round;stroke-miterlimit:10;stroke-width:0.5px"></line><line x1="402.88" y1="247.38" x2="402.88" y2="251" style="fill:none;stroke:#263238;stroke-linecap:round;stroke-miterlimit:10;stroke-width:0.5px"></line><line x1="412.1" y1="247.38" x2="412.1" y2="251" style="fill:none;stroke:#263238;stroke-linecap:round;stroke-miterlimit:10;stroke-width:0.5px"></line><path d="M226.24,157.09h-2l-.44,1h-.27l1.58-3.43h.25l1.58,3.43h-.27Zm-.09-.21-.9-2-.9,2Z" style="fill:#263238"></path><path d="M231,155.5l-1,2.56h-.23l-.86-2.22-.87,2.22h-.22l-1-2.56h.23l.86,2.28.87-2.28h.21l.87,2.28.86-2.28Z" style="fill:#263238"></path><path d="M233.36,156.44v1.62h-.24v-.46a1,1,0,0,1-.92.48c-.57,0-.92-.3-.92-.73s.24-.72.95-.72h.88v-.2a.66.66,0,0,0-.76-.73,1.33,1.33,0,0,0-.88.32l-.12-.18a1.56,1.56,0,0,1,1-.36A.87.87,0,0,1,233.36,156.44Zm-.25.86v-.48h-.87c-.53,0-.72.22-.72.52s.26.54.71.54A.88.88,0,0,0,233.11,157.3Z" style="fill:#263238"></path><path d="M235.27,156.69l-.66.61v.76h-.25v-3.64h.25V157l1.63-1.49h.32l-1.1,1,1.21,1.53h-.31Z" style="fill:#263238"></path><path d="M239.3,156.84h-2.2a1.09,1.09,0,0,0,1.9.66l.14.16a1.2,1.2,0,0,1-1,.42,1.25,1.25,0,0,1-1.32-1.3,1.22,1.22,0,1,1,2.44,0Zm-2.2-.19h2a1,1,0,0,0-1-1A1,1,0,0,0,237.1,156.65Z" style="fill:#263238"></path><path d="M224.12,180.35h.25v3.21h2v.22h-2.23Z" style="fill:#263238"></path><path d="M226.83,180.4a.21.21,0,0,1,.2-.2.2.2,0,1,1-.2.2Zm.08.82h.24v2.56h-.24Z" style="fill:#263238"></path><path d="M230.49,181.22v2.29a1.09,1.09,0,0,1-1.24,1.24,1.68,1.68,0,0,1-1.17-.41l.13-.18a1.54,1.54,0,0,0,1,.37c.69,0,1-.31,1-1v-.44a1.17,1.17,0,0,1-1.06.59,1.25,1.25,0,1,1,0-2.49,1.17,1.17,0,0,1,1.07.6v-.58Zm-.24,1.22a1,1,0,1,0-1.05,1A1,1,0,0,0,230.25,182.44Z" style="fill:#263238"></path><path d="M233.81,182.29v1.49h-.24v-1.47a.78.78,0,0,0-.83-.89.92.92,0,0,0-1,1v1.36h-.25v-3.63h.25v1.61a1.06,1.06,0,0,1,1-.56A1,1,0,0,1,233.81,182.29Z" style="fill:#263238"></path><path d="M236.09,183.62a.81.81,0,0,1-.53.18.63.63,0,0,1-.69-.7v-1.67h-.47v-.21h.47v-.56h.24v.56h.82v.21h-.82v1.65c0,.33.16.51.48.51a.58.58,0,0,0,.39-.14Z" style="fill:#263238"></path><path d="M237.75,183.34l.12-.19a1.6,1.6,0,0,0,1.13.43c.68,0,1-.29,1-.67,0-1-2.14-.41-2.14-1.67,0-.49.37-.91,1.21-.91a1.87,1.87,0,0,1,1,.3l-.1.21a1.65,1.65,0,0,0-.94-.29c-.66,0-1,.31-1,.68,0,1,2.14.42,2.14,1.67,0,.48-.39.9-1.24.9A1.78,1.78,0,0,1,237.75,183.34Z" style="fill:#263238"></path><path d="M241,180.15h.24v3.63H241Z" style="fill:#263238"></path><path d="M244.44,182.56h-2.2a1,1,0,0,0,1.09,1,1,1,0,0,0,.81-.36l.15.16a1.22,1.22,0,0,1-1,.42,1.26,1.26,0,0,1-1.32-1.3,1.23,1.23,0,0,1,1.23-1.3,1.21,1.21,0,0,1,1.22,1.29S244.44,182.54,244.44,182.56Zm-2.19-.19h2a1,1,0,0,0-1-1A1,1,0,0,0,242.25,182.37Z" style="fill:#263238"></path><path d="M247.37,182.56h-2.2a1,1,0,0,0,1.08,1,1,1,0,0,0,.82-.36l.14.16a1.22,1.22,0,0,1-1,.42,1.25,1.25,0,0,1-1.31-1.3,1.22,1.22,0,1,1,2.44,0Zm-2.2-.19h2a1,1,0,0,0-2,0Z" style="fill:#263238"></path><path d="M250.67,182.5a1.23,1.23,0,0,1-1.26,1.3,1.15,1.15,0,0,1-1-.6v1.53h-.24v-3.51h.23v.61a1.14,1.14,0,0,1,1-.63A1.24,1.24,0,0,1,250.67,182.5Zm-.24,0a1,1,0,1,0-1,1.08A1,1,0,0,0,250.43,182.5Z" style="fill:#263238"></path><path d="M224.12,246.11h1.36a1.72,1.72,0,1,1,0,3.43h-1.36Zm1.34,3.2a1.49,1.49,0,1,0,0-3h-1.09v3Z" style="fill:#263238"></path><path d="M230.25,248.32h-2.2a1,1,0,0,0,1.08,1A1,1,0,0,0,230,249l.14.16a1.2,1.2,0,0,1-1,.42,1.25,1.25,0,0,1-1.32-1.3,1.22,1.22,0,1,1,2.44,0Zm-2.2-.19h2a1,1,0,0,0-1-.95A1,1,0,0,0,228.05,248.13Z" style="fill:#263238"></path><path d="M233.17,248.32H231a1,1,0,0,0,1.08,1,1,1,0,0,0,.82-.36l.14.16a1.19,1.19,0,0,1-1,.42,1.25,1.25,0,0,1-1.32-1.3,1.23,1.23,0,1,1,2.45,0S233.17,248.29,233.17,248.32Zm-2.19-.19h2a1,1,0,0,0-1-.95A1,1,0,0,0,231,248.13Z" style="fill:#263238"></path><path d="M236.48,248.26a1.23,1.23,0,0,1-1.26,1.3,1.12,1.12,0,0,1-1-.61v1.54h-.25V247h.24v.6a1.14,1.14,0,0,1,1.05-.62A1.23,1.23,0,0,1,236.48,248.26Zm-.25,0a1,1,0,1,0-1,1.08A1,1,0,0,0,236.23,248.26Z" style="fill:#263238"></path><path d="M238.22,249.1l.12-.19a1.6,1.6,0,0,0,1.13.43c.68,0,1-.3,1-.67,0-1-2.14-.41-2.14-1.68,0-.48.37-.91,1.21-.91a1.88,1.88,0,0,1,1,.31l-.1.2a1.73,1.73,0,0,0-.94-.29c-.66,0-1,.31-1,.69,0,1,2.14.42,2.14,1.67,0,.48-.39.9-1.24.9A1.78,1.78,0,0,1,238.22,249.1Z" style="fill:#263238"></path><path d="M241.47,245.9h.25v3.64h-.25Z" style="fill:#263238"></path><path d="M244.91,248.32h-2.2a1,1,0,0,0,1.09,1,1,1,0,0,0,.81-.36l.15.16a1.22,1.22,0,0,1-1,.42,1.26,1.26,0,0,1-1.32-1.3,1.23,1.23,0,0,1,1.23-1.3,1.21,1.21,0,0,1,1.22,1.29S244.91,248.29,244.91,248.32Zm-2.19-.19h2a1,1,0,0,0-2,0Z" style="fill:#263238"></path><path d="M247.84,248.32h-2.2a1,1,0,0,0,1.08,1,1,1,0,0,0,.82-.36l.14.16a1.22,1.22,0,0,1-1,.42,1.25,1.25,0,0,1-1.31-1.3,1.22,1.22,0,1,1,2.44,0Zm-2.2-.19h2a1,1,0,0,0-2,0Z" style="fill:#263238"></path><path d="M251.14,248.26a1.23,1.23,0,0,1-1.26,1.3,1.14,1.14,0,0,1-1-.61v1.54h-.24V247h.23v.6a1.15,1.15,0,0,1,1-.62A1.23,1.23,0,0,1,251.14,248.26Zm-.24,0a1,1,0,1,0-1,1.08A1,1,0,0,0,250.9,248.26Z" style="fill:#263238"></path></g><g id="freepik--Ground--inject-3"><rect x="65.67" y="388.67" width="380" height="6" style="fill:#263238"></rect></g></svg>