<svg width="15" height="15" viewBox="0 0 15 15" fill="none" xmlns="http://www.w3.org/2000/svg">
<g id="Graphics-symbol" clip-path="url(#clip0_1_114)">
<g id="Group">
<path id="Vector" d="M14.1697 7.3508C14.1697 6.87498 14.1304 6.39656 14.0464 5.92844H7.31013V8.62403H11.1677C11.0076 9.49336 10.4932 10.2625 9.74012 10.7511V12.5002H12.0415C13.393 11.281 14.1697 9.48055 14.1697 7.3508Z" fill="#4285F4"/>
<path id="Vector_2" d="M7.31013 14.1902C9.23625 14.1902 10.8606 13.5703 12.0441 12.5003L9.7427 10.7513C9.10241 11.1783 8.27578 11.42 7.31272 11.42C5.44956 11.42 3.8698 10.188 3.30298 8.53156H0.928101V10.3346C2.14047 12.6984 4.60982 14.1902 7.31013 14.1902Z" fill="#34A853"/>
<path id="Vector_3" d="M3.30058 8.53142C3.00143 7.66202 3.00143 6.72064 3.30058 5.85126V4.04822H0.928323C-0.084608 6.02617 -0.084608 8.35649 0.928323 10.3345L3.30058 8.53142Z" fill="#FBBC04"/>
<path id="Vector_4" d="M7.31013 2.9603C8.32828 2.94487 9.31234 3.32039 10.0497 4.00973L12.0888 2.01119C10.7977 0.822878 9.08407 0.169562 7.31013 0.190138C4.60982 0.190138 2.14047 1.68196 0.928101 4.0483L3.30036 5.85136C3.86456 4.19234 5.44694 2.9603 7.31013 2.9603Z" fill="#EA4335"/>
</g>
</g>
<defs>
<clipPath id="clip0_1_114">
<rect width="14" height="14" fill="white" transform="translate(0.169998 0.190002)"/>
</clipPath>
</defs>
</svg>
