<svg xmlns="http://www.w3.org/2000/svg" xmlns:xlink="http://www.w3.org/1999/xlink" viewBox="0 0 500 500"><defs><clipPath id="freepik--clip-path--inject-27"><rect x="275.76" y="94.12" width="156.19" height="111.89" transform="translate(503.92 -203.79) rotate(90)" style="fill:none"></rect></clipPath></defs><g id="freepik--background-complete--inject-27"><rect y="382.4" width="500" height="0.25" style="fill:#ebebeb"></rect><rect x="90.46" y="391.92" width="24.87" height="0.25" style="fill:#ebebeb"></rect><rect x="152.33" y="389.21" width="27.5" height="0.25" style="fill:#ebebeb"></rect><rect x="47.67" y="401.21" width="58.11" height="0.25" style="fill:#ebebeb"></rect><rect x="428.3" y="399.53" width="21.6" height="0.25" style="fill:#ebebeb"></rect><rect x="214.79" y="391.14" width="27.93" height="0.25" style="fill:#ebebeb"></rect><rect x="300.67" y="395.31" width="70.22" height="0.25" style="fill:#ebebeb"></rect><path d="M237,337.8H43.91a5.71,5.71,0,0,1-5.7-5.71V60.66A5.71,5.71,0,0,1,43.91,55H237a5.71,5.71,0,0,1,5.71,5.71V332.09A5.71,5.71,0,0,1,237,337.8ZM43.91,55.2a5.46,5.46,0,0,0-5.45,5.46V332.09a5.46,5.46,0,0,0,5.45,5.46H237a5.47,5.47,0,0,0,5.46-5.46V60.66A5.47,5.47,0,0,0,237,55.2Z" style="fill:#ebebeb"></path><path d="M453.31,337.8H260.21a5.72,5.72,0,0,1-5.71-5.71V60.66A5.72,5.72,0,0,1,260.21,55h193.1A5.71,5.71,0,0,1,459,60.66V332.09A5.71,5.71,0,0,1,453.31,337.8ZM260.21,55.2a5.47,5.47,0,0,0-5.46,5.46V332.09a5.47,5.47,0,0,0,5.46,5.46h193.1a5.47,5.47,0,0,0,5.46-5.46V60.66a5.47,5.47,0,0,0-5.46-5.46Z" style="fill:#ebebeb"></path><rect x="58.64" y="248.72" width="30.57" height="133.68" transform="translate(147.86 631.11) rotate(180)" style="fill:#e6e6e6"></rect><polygon points="71.88 382.4 58.64 382.4 58.64 360.21 72.2 360.21 71.88 382.4" style="fill:#f5f5f5"></polygon><rect x="234.85" y="248.72" width="30.57" height="133.68" transform="translate(500.28 631.11) rotate(180)" style="fill:#e6e6e6"></rect><rect x="58.64" y="248.72" width="187.76" height="126.05" transform="translate(305.05 623.48) rotate(180)" style="fill:#f5f5f5"></rect><polygon points="233.17 382.4 246.41 382.4 246.41 360.21 232.85 360.21 233.17 382.4" style="fill:#f5f5f5"></polygon><rect x="68.91" y="259.32" width="167.22" height="46.49" transform="translate(305.05 565.13) rotate(180)" style="fill:#f0f0f0"></rect><rect x="68.91" y="317.04" width="167.22" height="46.49" transform="translate(305.05 680.57) rotate(180)" style="fill:#f0f0f0"></rect><path d="M366.42,287.43c2.9,1.46,10.78-.1,8.16,5.23a45.46,45.46,0,0,1-5.39,7.82c-2.93,3.62-2.38,7.54,1.09,9a4.26,4.26,0,0,1,1.91,1.33c1.6,2.29-2.17,5.36-4,7.65s-2.6,4.54-1.23,6.25c1.51,1.88,4.65,1.19,7.15,1.76,6,1.36-.17,9.65.47,13.91.44,2.91,2.8,3.73,6,4.14,2.62.33,6.12.57,6.26,3.25.13,2.33-2.9,5-3.69,7.41a7.62,7.62,0,0,0,.58,6.43,7.05,7.05,0,0,0,4.72,3.09c3,.63,7.48,0,7.69,3.33.1,1.5-.95,2.83-.22,4.21a4.75,4.75,0,0,0,3.49,2.05,25.37,25.37,0,0,0,8.58-.15c3.49-.64,8.65-3.72,6.76-6.68a4.1,4.1,0,0,0-2.71-1.56c-.83-.17-3.28.1-3.59-.47s.53-2.75.56-3.54a16.51,16.51,0,0,0-1-6.41,19.61,19.61,0,0,0-4.51-7.14c-.83-.84-2.15-1.46-2.32-2.68s.6-2.57,1.45-3.76c1.33-1.88,3.4-3.68,4.15-5.69,1.18-3.17-1.67-4.17-4.31-4.89-2.39-.65-5.54-1.49-4.72-4.39.58-2.09,3.22-3.8,4-5.85,1.06-2.74-1.52-2.84-3.38-3.82-2.41-1.27-3-3.54-2.14-6.41,1.44-4.74,10.13-11.43,5.68-14.51-1.13-.78-2.18-1.05-2.86-2.22s-.83-2.82-1.77-4c-1.5-1.82-4.59-2.12-6.21-3.8-3.32-3.45,3.85-9.56-2.69-11a7.86,7.86,0,0,1-3.82-1.58c-.6-.56-1.09-3.26-1.76-3.45-3-.84-8.41,5-10.11,6.78C370.61,279.26,363,285.69,366.42,287.43Z" style="fill:#e0e0e0"></path><path d="M417.9,367.76c-1.78-3.3-9.57-6.59-4.4-10.42a43.06,43.06,0,0,1,8.94-4.66c4.52-1.89,6.13-6.25,3.84-9.86a5.61,5.61,0,0,1-1-2.56c-.18-3.33,4.79-4.13,7.65-5.33s4.72-3,4.43-5.64c-.33-2.86-3.48-4.11-5.37-6.24-4.58-5.13,5.31-9.78,7-14.54,1.17-3.25-.48-5.55-3.09-8-2.13-2-5.09-4.39-3.78-7.23,1.13-2.45,5.21-3.27,7.22-5.28a9.78,9.78,0,0,0,2.93-7,9,9,0,0,0-2.51-6.08c-2.29-2.5-6.61-4.63-5-8.2.72-1.59,2.35-2.3,2.45-4.17a6.07,6.07,0,0,0-2-4.27,25.65,25.65,0,0,0-7.65-5.17c-3.42-1.52-9.62-1.57-9.54,2.65a5.18,5.18,0,0,0,1.56,3.27c.65.69,2.94,1.94,2.91,2.71s-1.93,2.49-2.39,3.28a21.77,21.77,0,0,0-2.53,7.19,27.12,27.12,0,0,0,.15,10.12c.29,1.37,1.12,2.82.62,4.18s-1.91,2.26-3.29,2.95c-2.19,1.1-5,1.65-6.72,3.25-2.73,2.51-.75,5.31,1.2,7.69,1.76,2.14,4.08,4.95,1.81,7.42-1.63,1.78-4.88,1.9-6.67,3.5-2.4,2.14-.18,3.86.93,6,1.45,2.8.77,5.5-1.54,7.9-3.81,4-15.05,5.41-12.78,11.33.58,1.5,1.36,2.42,1.33,4.05s-.77,3.4-.55,5.16c.35,2.78,2.92,5,3.45,7.74,1.08,5.59-8.52,7.4-3.52,12.95a9.33,9.33,0,0,1,2.52,4c.23,1-.79,4-.29,4.63,2.2,2.72,10.09.12,12.55-.67C409.83,373.53,420,371.69,417.9,367.76Z" style="fill:#f5f5f5"></path><path d="M437.86,360.31s-.94,22.09-37.1,22.09-37.1-22.09-37.1-22.09Z" style="fill:#f0f0f0"></path><rect x="65.67" y="74.45" width="152.36" height="151.22" transform="translate(283.7 300.13) rotate(180)" style="fill:#e6e6e6"></rect><rect x="57.45" y="74.45" width="159.02" height="151.22" transform="translate(273.93 300.13) rotate(180)" style="fill:#f0f0f0"></rect><rect x="68.69" y="77.9" width="136.54" height="144.34" transform="translate(287.03 13.1) rotate(90)" style="fill:#fff"></rect><circle cx="136.97" cy="150.07" r="37.4" transform="translate(-66 140.8) rotate(-45)" style="fill:#f5f5f5"></circle></g><g id="freepik--Shadow--inject-27"><ellipse id="freepik--path--inject-27" cx="250" cy="416.24" rx="193.89" ry="11.32" style="fill:#f5f5f5"></ellipse></g><g id="freepik--Window--inject-27"><polygon points="293.08 67.15 97.57 286.74 363.68 368.04 414.63 232.99 293.08 67.15" style="fill:#407BFF;opacity:0.2"></polygon><rect x="416.93" y="112.09" width="0.92" height="6.09" style="fill:#407BFF"></rect><rect x="416.93" y="87.43" width="0.92" height="17.75" style="fill:#407BFF"></rect><rect x="293.09" y="67.15" width="121.54" height="165.84" style="fill:#407BFF"></rect><rect x="275.76" y="94.12" width="156.19" height="111.89" transform="translate(503.92 -203.79) rotate(90)" style="fill:#263238"></rect><g style="clip-path:url(#freepik--clip-path--inject-27)"><path d="M363.64,159.54a7.62,7.62,0,0,0-6.76-7.09h0c-1.82-6-7.92-9.63-15.86-8.65a26.93,26.93,0,0,0-17.57,10.41h0a12.68,12.68,0,0,0-5-.3,18.79,18.79,0,0,0-13.78,9.57,9.7,9.7,0,0,0-2.59,0c-5,.62-9.56,4.75-10.38,9.27h0c-3.24,1.73-5.78,4.83-6.3,8.12a6.65,6.65,0,0,0,.34,3.51l87.41-10.81a13.82,13.82,0,0,0,.7-2.65C374.9,164.33,370.42,159.56,363.64,159.54Z" style="fill:#fff;opacity:0.2"></path><path d="M436,215.79c-.37-5.92-4.09-10.25-9.58-11.34h0c-2.57-9.52-11.22-15.38-22.48-14-9.76,1.21-19.07,7.57-24.88,16.1h0A16.31,16.31,0,0,0,372,206c-8.16,1-15.86,7.15-19.52,14.86a11.76,11.76,0,0,0-3.67-.1c-7,.87-13.55,7.3-14.71,14.44h0a18.24,18.24,0,0,0-8.92,12.7,11.52,11.52,0,0,0,.48,5.56l123.86-15.32a23.37,23.37,0,0,0,1-4.17C452,223.59,445.65,216,436,215.79Z" style="fill:#fff;opacity:0.2"></path></g><rect x="273.23" y="144.2" width="158.2" height="11.73" transform="translate(502.39 -202.26) rotate(90)" style="fill:#407BFF"></rect><rect x="281.28" y="148.89" width="156.19" height="2.36" transform="translate(509.44 -209.3) rotate(90)" style="fill:#fff"></rect><rect x="221" y="148.89" width="156.19" height="2.36" transform="translate(449.16 -149.02) rotate(90)" style="fill:#fff"></rect><path d="M402,117.6a14.72,14.72,0,0,1-28.24,5.8,14.71,14.71,0,0,0,19.32-19.34A14.74,14.74,0,0,1,402,117.6Z" style="fill:#fff"></path><path d="M318.64,100.7c-2.12.59-2.6,1.07-3.18,3.19-.59-2.12-1.07-2.6-3.19-3.19,2.12-.58,2.6-1.06,3.19-3.18C316,99.64,316.52,100.12,318.64,100.7Z" style="fill:#fff"></path><circle cx="379.24" cy="87.43" r="1.98" style="fill:#fff"></circle><path d="M395.72,146.34c-1.33.36-1.62.66-2,2-.36-1.32-.66-1.62-2-2,1.32-.37,1.62-.66,2-2C394.1,145.68,394.39,146,395.72,146.34Z" style="fill:#fff"></path><path d="M333.92,192.26c-1.32.37-1.61.66-2,2-.36-1.32-.66-1.61-2-2,1.32-.36,1.62-.66,2-2C332.31,191.6,332.6,191.9,333.92,192.26Z" style="fill:#fff"></path></g><g id="freepik--Lamp--inject-27"><ellipse cx="110.93" cy="123.25" rx="15.19" ry="15.79" transform="translate(-54.66 114.54) rotate(-45)" style="fill:#407BFF"></ellipse><path d="M119.94,136.57c-1.43,1.42-7.58-2.42-13.74-8.59s-10-12.31-8.59-13.74,7.58,2.42,13.74,8.59S121.36,135.15,119.94,136.57Z" style="fill:#263238"></path><path d="M105.13,164.11,70.07,129.05l23.38-14.29a4,4,0,0,1,4.14,0,66.9,66.9,0,0,1,21.76,21.82,4,4,0,0,1,0,4.2Z" style="fill:#407BFF"></path><path d="M105.13,164.11c-1.46,1.45-10.48-5.22-20.16-14.9s-16.35-18.7-14.9-20.16,10.48,5.22,20.16,14.9S106.58,162.65,105.13,164.11Z" style="fill:#407BFF"></path><path d="M104.36,163.34c-1.06,1.06-9.43-5.58-18.68-14.84s-15.9-17.62-14.84-18.68,9.42,5.58,18.68,14.84S105.42,162.28,104.36,163.34Z" style="opacity:0.30000000000000004"></path><path d="M89.52,144.66c-2-2-4-3.89-5.82-5.59a12.29,12.29,0,0,0,11.42,11.42C93.41,148.64,91.53,146.67,89.52,144.66Z" style="fill:#fff"></path><circle cx="121.67" cy="112.51" r="3.76" style="fill:#407BFF"></circle><path d="M144.43,408.72a1.5,1.5,0,0,1-1.5-1.5V140.42a19.8,19.8,0,0,0-7.69-15.59L120.75,113.7a1.5,1.5,0,0,1,1.83-2.38l14.49,11.13a22.79,22.79,0,0,1,8.86,18v266.8A1.5,1.5,0,0,1,144.43,408.72Z" style="fill:#407BFF"></path><path d="M157.22,411.36H131.63a3.12,3.12,0,0,1-3.11-3.11h0a3.12,3.12,0,0,1,3.11-3.11h25.59a3.12,3.12,0,0,1,3.11,3.11h0A3.12,3.12,0,0,1,157.22,411.36Z" style="fill:#407BFF"></path></g><g id="freepik--Bed--inject-27"><path d="M80,270.95H336.52a0,0,0,0,1,0,0v61.36a21.44,21.44,0,0,1-21.44,21.44H101.44A21.44,21.44,0,0,1,80,332.31V270.95A0,0,0,0,1,80,270.95Z" transform="translate(416.52 624.7) rotate(180)" style="fill:#407BFF"></path><path d="M80,270.95H336.52a0,0,0,0,1,0,0v61.36a21.44,21.44,0,0,1-21.44,21.44H101.44A21.44,21.44,0,0,1,80,332.31V270.95A0,0,0,0,1,80,270.95Z" transform="translate(416.52 624.7) rotate(180)" style="fill:#fff;opacity:0.2"></path><path d="M86.07,270.95H342.59a0,0,0,0,1,0,0v61.36a21.44,21.44,0,0,1-21.44,21.44H107.51a21.44,21.44,0,0,1-21.44-21.44V270.95A0,0,0,0,1,86.07,270.95Z" transform="translate(428.66 624.7) rotate(180)" style="fill:#407BFF"></path><path d="M86.07,270.95H342.59a0,0,0,0,1,0,0v61.36a21.44,21.44,0,0,1-21.44,21.44H107.51a21.44,21.44,0,0,1-21.44-21.44V270.95A0,0,0,0,1,86.07,270.95Z" transform="translate(428.66 624.7) rotate(180)" style="fill:#fff;opacity:0.6000000000000001"></path><rect x="80" y="350.7" width="340" height="61.36" rx="4.17" transform="translate(500 762.76) rotate(180)" style="fill:#407BFF"></rect><rect x="163.48" y="350.7" width="256.52" height="61.36" rx="4.17" transform="translate(583.48 762.76) rotate(180)" style="fill:#fff;opacity:0.2"></rect><path d="M87.46,324.52H412.54a0,0,0,0,1,0,0v15.43a10.75,10.75,0,0,1-10.75,10.75H98.21a10.75,10.75,0,0,1-10.75-10.75V324.52A0,0,0,0,1,87.46,324.52Z" transform="translate(500 675.22) rotate(180)" style="fill:#407BFF"></path><path d="M87.46,324.52H412.54a0,0,0,0,1,0,0v15.43a10.75,10.75,0,0,1-10.75,10.75H98.21a10.75,10.75,0,0,1-10.75-10.75V324.52A0,0,0,0,1,87.46,324.52Z" transform="translate(500 675.22) rotate(180)" style="fill:#fff;opacity:0.7000000000000001"></path><path d="M167.28,324.52H412.54a0,0,0,0,1,0,0v15.43a10.75,10.75,0,0,1-10.75,10.75H178a10.75,10.75,0,0,1-10.75-10.75V324.52A0,0,0,0,1,167.28,324.52Z" transform="translate(579.82 675.22) rotate(180)" style="fill:#fff;opacity:0.7000000000000001"></path><path d="M397.61,416.24h6.83a4.18,4.18,0,0,0,4.18-4.18H393.44A4.18,4.18,0,0,0,397.61,416.24Z" style="fill:#263238"></path><path d="M179,416.24h6.83a4.17,4.17,0,0,0,4.17-4.18H174.87A4.17,4.17,0,0,0,179,416.24Z" style="fill:#263238"></path><path d="M95.56,416.24h6.83a4.18,4.18,0,0,0,4.17-4.18H91.38A4.18,4.18,0,0,0,95.56,416.24Z" style="fill:#263238"></path><path d="M314.13,416.24H321a4.17,4.17,0,0,0,4.17-4.18H310A4.17,4.17,0,0,0,314.13,416.24Z" style="fill:#263238"></path><path d="M224.07,323.38c-.76-5.57-16.44-25.81-18.34-28.21a5,5,0,0,0,1.26-6.7s-5.56,0-6.45,5.06c-34.15-.76-67.29.12-73.11,1.51-7-2.15-10.12-1.44-10.12-1.44s-1.89,4,5.82,5.87a24.45,24.45,0,0,0,8.1,23.91Z" style="fill:#fff"></path><path d="M329,323.38c-.34-5.53-9.37-19.53-10.42-22.05a6.83,6.83,0,0,0,1.47-6.59s-3.74-.35-4.81,4.63c-22.92-2.9-45.32-4.1-49.36-3.08-4.49-2.57-6.68-2.07-6.68-2.07s-1.65,3.84,3.37,6.21A35.07,35.07,0,0,0,266,326.16Z" style="fill:#fff"></path><path d="M97.52,320.47c5.9-1.47,23.76-4,41-4s62.11,3.46,76.44,3.14,72,.53,91.56-2,41.66,3.44,53.55,3.66,24.67-3.94,33.45-1.94c3.81.87,4.05,2.1,4.05,3.21a2,2,0,0,1-2,2s-213.51,1.13-222.81,0-11.61,4.4-10.75,10.75a28.22,28.22,0,0,1,0,7.21,3.6,3.6,0,0,1-3.6,3.6H90.37a3.61,3.61,0,0,1-3.61-3.6V331.23C86.76,325.28,91.63,321.94,97.52,320.47Z" style="fill:#407BFF"></path><path d="M162,342.48a3.6,3.6,0,0,1-3.6,3.6H90.37a3.61,3.61,0,0,1-3.61-3.6Z" style="fill:#fff"></path></g><g id="freepik--Character--inject-27"><path d="M205,177.72c-.77,4.85-17.39-4-16.55,12.13s-12.63,9.92-8.13,20.15c7.06,16.07-10.6,19.53,13,31.66,19.34,10,40.41,10.18,42.6-9.08,1.09-9.63-5.71-17.45,1.21-26.1s9.23-20.63-3.75-25.12c-1.35-7-3.4-11.92-17.85-11.9C203,169.48,205,177.72,205,177.72Z" style="fill:#263238"></path><path d="M205.51,177c-6.1,5.32-8.83-1.28-5.79-2.37-6.69.18-6.87,5-1.5,5.69S208.37,182.1,205.51,177Z" style="fill:#263238"></path><path d="M240.13,201.9c-2.3,5.28-7,12.79,0,14.56,3.24.82,1.86-4.37,1.86-4.37s3.86,7.53-.13,9.53c-5.5,2.76-9.54-5.34-9.54-5.34S233.47,204.58,240.13,201.9Z" style="fill:#263238"></path><path d="M276.57,238.76a11.19,11.19,0,1,0-15.82,15.82l3.68,3.68,15.82-15.82Z" style="fill:#263238"></path><polygon points="265.95 261.58 266.79 262.42 270.73 258.78 267.91 257.62 265.95 261.58" style="fill:#263238"></polygon><path d="M288.79,248.57a7.73,7.73,0,0,0-3.43-6.43,2.77,2.77,0,0,0-4.32,2.3v8.26a2.77,2.77,0,0,0,4.32,2.3A7.73,7.73,0,0,0,288.79,248.57Z" style="fill:#263238"></path><circle cx="272.34" cy="250.35" r="11.18" style="fill:#407BFF"></circle><path d="M270.43,230.22a7.72,7.72,0,0,0-6.43,3.42,2.78,2.78,0,0,0,2.3,4.32h8.26a2.77,2.77,0,0,0,2.3-4.32A7.72,7.72,0,0,0,270.43,230.22Z" style="fill:#407BFF"></path><polygon points="256.61 252.24 255.78 251.4 259.41 247.47 260.57 250.28 256.61 252.24" style="fill:#263238"></polygon><path d="M273.68,252.47l-3.39-1.5a3.09,3.09,0,0,0-4,1.36l-.86,1.6s-3.62,5.22-3.51,9.93l1.23.45a7,7,0,0,0,6.05-.63l2.18-1.32a8.62,8.62,0,0,0,4.1-6.91h0A3.06,3.06,0,0,0,273.68,252.47Z" style="fill:#b55b52"></path><path d="M233.81,238.49c.07.46.17,1.16.27,1.76l.33,1.89c.22,1.26.48,2.53.77,3.78.58,2.51,1.22,5,2,7.43a53.47,53.47,0,0,0,6.11,13.44c.32.5.67,1,1,1.44l.53.68.14.17.06.09-.05-.06a2.42,2.42,0,0,0-.36-.27,1.9,1.9,0,0,0-.67-.29c-.15,0-.24,0-.23,0s.31.08.68,0a12.83,12.83,0,0,0,2.93-.76,35.11,35.11,0,0,0,3.4-1.41c2.31-1.07,4.65-2.33,7-3.64l3.51-2,3.47-2.07.1-.07a3,3,0,0,1,3.74,4.69,78.42,78.42,0,0,1-13.18,11.28,45.91,45.91,0,0,1-4,2.36,23.5,23.5,0,0,1-4.92,1.9,12.37,12.37,0,0,1-3.44.38,9.42,9.42,0,0,1-2.27-.36,8.9,8.9,0,0,1-2.52-1.2,8.77,8.77,0,0,1-1.14-1l-.23-.24-.11-.11-.2-.23-.81-.89c-.51-.61-1-1.22-1.52-1.85a58,58,0,0,1-8.51-16.21,78.42,78.42,0,0,1-2.45-8.55c-.33-1.44-.62-2.89-.88-4.34-.13-.73-.25-1.47-.35-2.21s-.19-1.44-.28-2.35a6.07,6.07,0,0,1,12-1.41Z" style="fill:#b65b52"></path><path d="M229,230.36c8.89,8.09,7.75,19.1,11.48,24.29-7.41,10.74-18.93,7-18.93,7S219.11,221.38,229,230.36Z" style="fill:#407BFF"></path><path d="M258.18,309.79c-1.49-8.53-23.77-16.22-29.57-29.37h0c.27-9.73-2.12-13.58-.36-18.94,8.46-3.55,4.3-13.58,5.25-17.35A13.53,13.53,0,0,0,225,228.07c-1.81-.65-3.72-1.3-5.58-1.87a126,126,0,0,0-17.54-3.65c-1.69-.27-3.35-.48-4.93-.64-5.89-.62-9.57,4.18-11,9.92-3.74,14.88-4.36,34.33-3.38,46.24-12.84,45.76,8.27,46.58,46.4,44C241.34,321.19,260.28,321.89,258.18,309.79Z" style="fill:#407BFF"></path><path d="M258.18,309.79a6.72,6.72,0,0,0-.81-2.16v0l-1.05-1c-6.27-5.87-14.74-9.37-22.64-9.37a19,19,0,0,0-7.35,1.33,8.65,8.65,0,0,1-5.21.57,25.67,25.67,0,0,0-5.26-.56c-6.06,0-12.81,1.62-17.39,5.59a10.87,10.87,0,0,0-3.78,8.16c0,3.14,2.19,6.69,4.53,8.78h0a6,6,0,0,0,3.58,1.5c7.34.53,16.14.08,26.1-.6C241.34,321.19,260.28,321.89,258.18,309.79Z" style="opacity:0.2"></path><path d="M214.5,261.7c-5.48,5.17-16.23,14.42-19.91,15.88C202.76,276.48,211.86,266,214.5,261.7Z" style="fill:#263238;opacity:0.2"></path><path d="M223.65,252c-5.72,9.73-15.13,24.19-18.93,28C214.65,273.12,222.59,257.08,223.65,252Z" style="fill:#263238;opacity:0.2"></path><path d="M207,202.54c-.29,5.86-2.81,16.08-5.15,20A42.85,42.85,0,0,1,219,237.28c5.5-6.54.4-11.08.4-11.08-6-2.81-4.85-7.45-2.84-11.6Z" style="fill:#b55b52"></path><path d="M211.3,207.82l5.24,6.77a18.53,18.53,0,0,0-1.19,3c-2.33-.85-5.09-4.17-4.82-6.75A8.73,8.73,0,0,1,211.3,207.82Z" style="opacity:0.2"></path><path d="M208.44,190.58c-1.93,9.45-2.94,13.41.39,19.41,5,9,16.82,9.26,21.48.56,4.19-7.83,6.64-22-1.3-28.05S210.37,181.13,208.44,190.58Z" style="fill:#b55b52"></path><path d="M231.74,182.51c-5.4,6.33-25.57,3.87-17.4,13.86,0,0-5.84,2.43-8-4.76S219.64,170.31,231.74,182.51Z" style="fill:#263238"></path><path d="M226.34,181.72c6.52,11.72,20.2,10.26,17.33,3.1-4.45,4.79-11.68-3.1-11.68-3.1Z" style="fill:#263238"></path><path d="M186.18,208.88c3.08,13.05-8,21.19-10.71,14,9.74.63,5.07-12.26,5.07-12.26Z" style="fill:#263238"></path><path d="M230.05,200.29a9.46,9.46,0,0,0,1.25,3.22A2.84,2.84,0,0,1,230.05,200.29Z" style="opacity:0.2"></path><path d="M223.52,198.8a8.27,8.27,0,0,1-3.63.9C221.3,200.81,223.09,199.58,223.52,198.8Z" style="opacity:0.2"></path><path d="M221.67,196.87c-.2.75,0,1.47.53,1.61s1.06-.38,1.26-1.14-.2-.66-.7-.8S221.87,196.11,221.67,196.87Z" style="fill:#263238"></path><path d="M227.77,200.19a21.08,21.08,0,0,0,1.4,5.56,3.38,3.38,0,0,1-2.83-.22Z" style="fill:#a02724"></path><path d="M219.78,203.68a6.92,6.92,0,0,0-1.19-.57.22.22,0,0,0-.29.13.23.23,0,0,0,.13.3,6.2,6.2,0,0,1,3.88,4.06.23.23,0,0,0,.27.17.22.22,0,0,0,.18-.27A6.44,6.44,0,0,0,219.78,203.68Z" style="fill:#263238"></path><path d="M204.29,196.8a6.18,6.18,0,0,0,3,4.13c2,1,3.51-1,3.43-3.48-.07-2.21-1.17-5.41-3.37-5.42S203.78,194.53,204.29,196.8Z" style="fill:#b55b52"></path><path d="M223.12,190.8a.51.51,0,0,0-.36.06,3.65,3.65,0,0,1-3.3.44.46.46,0,0,0-.37.84,4.55,4.55,0,0,0,4.17-.5.48.48,0,0,0,.14-.64A.51.51,0,0,0,223.12,190.8Z" style="fill:#263238"></path><path d="M232.59,193.2a.45.45,0,0,0-.34,0,.46.46,0,0,0-.21.62,4.55,4.55,0,0,0,3.32,2.56.45.45,0,0,0,.51-.4.46.46,0,0,0-.4-.51,3.66,3.66,0,0,1-2.61-2.06A.48.48,0,0,0,232.59,193.2Z" style="fill:#263238"></path><path d="M222.12,196.37l2,.2S222.32,197.62,222.12,196.37Z" style="fill:#263238"></path><path d="M230.85,199.58c-.2.75,0,1.47.53,1.61s1.06-.38,1.26-1.13-.2-.67-.7-.81S231.05,198.82,230.85,199.58Z" style="fill:#263238"></path><path d="M231.3,199.08l2,.2S231.5,200.34,231.3,199.08Z" style="fill:#263238"></path><path d="M198,284l7-1-3.74,10.91s-6.12-1.73-9-5.44l.68-1.13A7,7,0,0,1,198,284Z" style="fill:#b55b52"></path><path d="M208.5,289.82l-1.68,3.31a3.08,3.08,0,0,1-3.92,1.46l-1.67-.69L205,283l3.06,3.36A3.09,3.09,0,0,1,208.5,289.82Z" style="fill:#b55b52"></path><path d="M198.11,233.85c-1.54,2.19-3.2,4.59-4.72,6.94s-3,4.75-4.44,7.17-2.74,4.85-3.95,7.28a52.81,52.81,0,0,0-3,7.26,22.13,22.13,0,0,0-.82,3.39l0,.2,0,.1v0a.5.5,0,0,0,0-.16c0-.05,0,0,0,.07a4.23,4.23,0,0,0,.31,1,16.28,16.28,0,0,0,1.73,2.94c.73,1,1.55,2.1,2.42,3.14,3.52,4.17,7.66,8.31,11.73,12.3l.07.07a3,3,0,0,1-3.6,4.8,86,86,0,0,1-15-10.55,48.12,48.12,0,0,1-3.45-3.41,26.33,26.33,0,0,1-3.24-4.31,14.09,14.09,0,0,1-1.38-3.06,11,11,0,0,1-.43-2.1,8.47,8.47,0,0,1,0-1.25v-.49l0-.35a31.9,31.9,0,0,1,.86-5.23,75.91,75.91,0,0,1,7.3-17.55c1.49-2.69,3-5.31,4.71-7.85s3.32-5,5.25-7.56a6.07,6.07,0,0,1,9.81,7.16Z" style="fill:#b65b52"></path><path d="M280.33,336.35c-6.33-10.7-17.52-22.27-24.7-29-11-10.26-27.4-11.7-32.86-5-3.79,4.62-5.38,14.07-.92,18.05C230.42,328,240.46,332.6,265,342.3c-.44,7.84,7.36,49.31,7.36,49.31l5.86,9.07C279.64,398.93,285.34,344.82,280.33,336.35Z" style="fill:#b55b52"></path><path d="M258.83,330.19c-6.91-7.6-18.12-16.45-25.54-22.91A24,24,0,0,0,223.07,302l-.3.34c-3.79,4.62-5.38,14.07-.92,18.05,8.41,7.5,18.22,12.05,41.77,21.37C263,336.76,261.28,332.88,258.83,330.19Z" style="opacity:0.2"></path><path d="M267,402.52c1.51-2.26,5.7-2.27,4.16-19.14,0,0,10-3.56,9.57-.29-.78,5.93-.18,29.62,6.74,35.06,3.07,2.42-3.35,3-5.73,1.39-6-4-4.89-5.57-8.36-7.66-3-1.79-3.84-2.48-6.45-3.46C264.74,407.6,265.47,404.79,267,402.52Z" style="fill:#b55b52"></path><path d="M200,305.5a24.27,24.27,0,0,1,33.65,1.86c6.69,7.21,14.8,16.11,23,25.49,12.15,13.93-10.62,66.08-12,67.83l-5.85-9.07s3.12-36.78,6-46.79c-24.55-9.7-36.31-16.79-44.87-24.44A9.9,9.9,0,0,1,200,305.5Z" style="fill:#b55b52"></path><path d="M233.37,401.33c1.81-2,5-7.13,6.09-17.45,0,0,11.81,2.42,10.17,5.27-3,5.18-4.79,23.18,1.94,28.84,3,2.52-3.44,2.89-5.76,1.2-5.82-4.23-4.28-5.15-7.42-7.7-2.69-2.19-3.46-3-5.91-4.32C230.44,406.05,231.55,403.37,233.37,401.33Z" style="fill:#b55b52"></path><path d="M196.18,221.86c-7-.52-14.92,10.84-20.5,18a30.9,30.9,0,0,0,13.17,17.19c5-6.21,10.45-14.8,12.16-19.77S203.81,222.43,196.18,221.86Z" style="fill:#407BFF"></path></g></svg>